%TF.GenerationSoftware,KiCad,Pcbnew,8.0.0*%
%TF.CreationDate,2024-03-05T17:39:41+11:00*%
%TF.ProjectId,ergodash-mini-double-pcb-plate,6572676f-6461-4736-982d-6d696e692d64,rev?*%
%TF.SameCoordinates,Original*%
%TF.FileFunction,Drillmap*%
%TF.FilePolarity,Positive*%
%FSLAX45Y45*%
G04 Gerber Fmt 4.5, Leading zero omitted, Abs format (unit mm)*
G04 Created by KiCad (PCBNEW 8.0.0) date 2024-03-05 17:39:41*
%MOMM*%
%LPD*%
G01*
G04 APERTURE LIST*
%ADD10C,0.499992*%
%ADD11C,0.499998*%
%ADD12C,0.200000*%
G04 APERTURE END LIST*
D10*
X19782122Y-11227468D02*
X19803112Y-11191204D01*
X21014833Y-11892349D01*
X20861622Y-12157214D01*
X20925439Y-12246220D01*
X20825462Y-12419186D01*
X20716348Y-12408144D01*
X19652828Y-14248128D01*
X19716046Y-14336745D01*
X19616034Y-14509712D01*
X19507555Y-14499058D01*
X19357307Y-14756939D01*
X18145550Y-14055793D01*
X18169539Y-14014342D01*
X17992268Y-13911754D01*
X17966727Y-13816116D01*
X18352066Y-13149542D01*
X18447704Y-13124001D01*
X18473704Y-13138995D01*
X19174779Y-11927380D01*
X19149097Y-11912528D01*
X19123591Y-11816889D01*
X19508930Y-11150317D01*
X19604569Y-11124775D01*
X19782122Y-11227468D01*
X18132180Y-10274969D02*
X18153170Y-10238703D01*
X19364856Y-10939849D01*
X19211680Y-11204714D01*
X19275498Y-11293720D01*
X19175520Y-11466687D01*
X19066371Y-11455645D01*
X18002887Y-13295628D01*
X18066069Y-13384246D01*
X17966092Y-13557214D01*
X17857613Y-13546559D01*
X17707330Y-13804440D01*
X16495608Y-13103294D01*
X16519597Y-13061842D01*
X16342291Y-12959254D01*
X16316750Y-12863616D01*
X16702124Y-12197042D01*
X16797762Y-12171502D01*
X16823762Y-12186494D01*
X17524838Y-10974880D01*
X17499156Y-10960027D01*
X17473614Y-10864388D01*
X17858989Y-10197816D01*
X17954627Y-10172274D01*
X18132180Y-10274969D01*
D11*
X8028743Y-10875346D02*
X8033699Y-10875723D01*
X8038582Y-10876343D01*
X8043387Y-10877201D01*
X8048107Y-10878290D01*
X8052736Y-10879604D01*
X8057268Y-10881138D01*
X8061697Y-10882884D01*
X8066017Y-10884838D01*
X8070222Y-10886991D01*
X8074305Y-10889340D01*
X8078261Y-10891877D01*
X8082083Y-10894596D01*
X8085766Y-10897491D01*
X8089303Y-10900556D01*
X8092688Y-10903785D01*
X8095915Y-10907172D01*
X8098979Y-10910710D01*
X8101872Y-10914394D01*
X8104589Y-10918217D01*
X8107123Y-10922174D01*
X8109469Y-10926257D01*
X8111621Y-10930461D01*
X8113572Y-10934780D01*
X8115317Y-10939208D01*
X8116848Y-10943738D01*
X8118161Y-10948364D01*
X8119248Y-10953081D01*
X8120105Y-10957882D01*
X8120724Y-10962761D01*
X8121101Y-10967711D01*
X8121227Y-10972727D01*
X8121101Y-10977746D01*
X8120724Y-10982699D01*
X8120105Y-10987580D01*
X8119248Y-10992382D01*
X8118161Y-10997099D01*
X8116848Y-11001726D01*
X8115316Y-11006256D01*
X8113572Y-11010683D01*
X8111621Y-11015001D01*
X8109469Y-11019204D01*
X8107123Y-11023286D01*
X8104588Y-11027240D01*
X8101871Y-11031062D01*
X8098978Y-11034743D01*
X8095915Y-11038279D01*
X8092688Y-11041664D01*
X8089302Y-11044890D01*
X8085765Y-11047953D01*
X8082083Y-11050845D01*
X8078260Y-11053562D01*
X8074304Y-11056096D01*
X8070221Y-11058442D01*
X8066016Y-11060593D01*
X8061696Y-11062544D01*
X8057267Y-11064288D01*
X8052735Y-11065820D01*
X8048106Y-11067133D01*
X8043386Y-11068220D01*
X8038582Y-11069077D01*
X8033699Y-11069696D01*
X8028743Y-11070072D01*
X8023721Y-11070199D01*
X8018708Y-11070072D01*
X8013760Y-11069696D01*
X8008884Y-11069077D01*
X8004086Y-11068220D01*
X7999372Y-11067133D01*
X7994747Y-11065820D01*
X7990219Y-11064288D01*
X7985794Y-11062544D01*
X7981476Y-11060593D01*
X7977274Y-11058442D01*
X7973192Y-11056096D01*
X7969237Y-11053562D01*
X7965415Y-11050845D01*
X7961732Y-11047953D01*
X7958195Y-11044890D01*
X7954809Y-11041664D01*
X7951581Y-11038279D01*
X7948516Y-11034743D01*
X7945622Y-11031062D01*
X7942903Y-11027240D01*
X7940367Y-11023286D01*
X7938019Y-11019204D01*
X7935865Y-11015001D01*
X7933912Y-11010683D01*
X7932166Y-11006256D01*
X7930632Y-11001726D01*
X7929318Y-10997099D01*
X7928229Y-10992382D01*
X7927371Y-10987580D01*
X7926751Y-10982699D01*
X7926374Y-10977746D01*
X7926247Y-10972727D01*
X7926374Y-10967711D01*
X7926751Y-10962761D01*
X7927371Y-10957882D01*
X7928229Y-10953081D01*
X7929318Y-10948364D01*
X7930632Y-10943738D01*
X7932166Y-10939208D01*
X7933912Y-10934780D01*
X7935865Y-10930461D01*
X7938019Y-10926257D01*
X7940367Y-10922174D01*
X7942903Y-10918217D01*
X7945622Y-10914394D01*
X7948516Y-10910710D01*
X7951581Y-10907172D01*
X7954809Y-10903785D01*
X7958195Y-10900556D01*
X7961732Y-10897491D01*
X7965415Y-10894596D01*
X7969237Y-10891877D01*
X7973192Y-10889340D01*
X7977274Y-10886991D01*
X7981476Y-10884838D01*
X7985794Y-10882884D01*
X7990219Y-10881138D01*
X7994747Y-10879604D01*
X7999372Y-10878290D01*
X8004086Y-10877201D01*
X8008884Y-10876343D01*
X8013760Y-10875723D01*
X8018708Y-10875346D01*
X8023721Y-10875219D01*
X8028743Y-10875346D01*
D10*
X6096000Y-12677209D02*
X6096000Y-5372315D01*
X6096261Y-12687463D02*
X6096000Y-12677209D01*
X6097037Y-12697588D02*
X6096261Y-12687463D01*
X6098315Y-12707569D02*
X6097037Y-12697588D01*
X6100082Y-12717395D02*
X6098315Y-12707569D01*
X6102324Y-12727051D02*
X6100082Y-12717395D01*
X6105030Y-12736527D02*
X6102324Y-12727051D01*
X6108186Y-12745808D02*
X6105030Y-12736527D01*
X6111780Y-12754882D02*
X6108186Y-12745808D01*
X6115799Y-12763736D02*
X6111780Y-12754882D01*
X6120230Y-12772358D02*
X6115799Y-12763736D01*
X6125059Y-12780734D02*
X6120230Y-12772358D01*
X6130275Y-12788851D02*
X6125059Y-12780734D01*
X6135865Y-12796698D02*
X6130275Y-12788851D01*
X6141815Y-12804260D02*
X6135865Y-12796698D01*
X6148114Y-12811526D02*
X6141815Y-12804260D01*
X6154747Y-12818483D02*
X6148114Y-12811526D01*
X6161702Y-12825117D02*
X6154747Y-12818483D01*
X6168967Y-12831415D02*
X6161702Y-12825117D01*
X6176529Y-12837366D02*
X6168967Y-12831415D01*
X6184374Y-12842956D02*
X6176529Y-12837366D01*
X6192491Y-12848173D02*
X6184374Y-12842956D01*
X6200865Y-12853003D02*
X6192491Y-12848173D01*
X6209485Y-12857434D02*
X6200865Y-12853003D01*
X6218338Y-12861452D02*
X6209485Y-12857434D01*
X6227410Y-12865046D02*
X6218338Y-12861452D01*
X6236689Y-12868203D02*
X6227410Y-12865046D01*
X6246162Y-12870909D02*
X6236689Y-12868203D01*
X6255816Y-12873151D02*
X6246162Y-12870909D01*
X6265639Y-12874918D02*
X6255816Y-12873151D01*
X6275618Y-12876196D02*
X6265639Y-12874918D01*
X6285739Y-12876972D02*
X6275618Y-12876196D01*
X6295991Y-12877233D02*
X6285739Y-12876972D01*
X15367213Y-12877233D02*
X6295991Y-12877233D01*
X15388485Y-12877752D02*
X15367213Y-12877233D01*
X15410922Y-12879275D02*
X15388485Y-12877752D01*
X15434335Y-12881749D02*
X15410922Y-12879275D01*
X15458532Y-12885124D02*
X15434335Y-12881749D01*
X15483322Y-12889349D02*
X15458532Y-12885124D01*
X15508513Y-12894371D02*
X15483322Y-12889349D01*
X15533915Y-12900139D02*
X15508513Y-12894371D01*
X15559336Y-12906602D02*
X15533915Y-12900139D01*
X15584585Y-12913708D02*
X15559336Y-12906602D01*
X15609471Y-12921406D02*
X15584585Y-12913708D01*
X15633803Y-12929645D02*
X15609471Y-12921406D01*
X15657388Y-12938372D02*
X15633803Y-12929645D01*
X15680038Y-12947537D02*
X15657388Y-12938372D01*
X15701559Y-12957087D02*
X15680038Y-12947537D01*
X15721761Y-12966972D02*
X15701559Y-12957087D01*
X15740452Y-12977140D02*
X15721761Y-12966972D01*
X19279801Y-15019124D02*
X15740452Y-12977140D01*
X19288813Y-15024023D02*
X19279801Y-15019124D01*
X19297969Y-15028412D02*
X19288813Y-15024023D01*
X19307253Y-15032294D02*
X19297969Y-15028412D01*
X19316648Y-15035676D02*
X19307253Y-15032294D01*
X19326135Y-15038561D02*
X19316648Y-15035676D01*
X19335697Y-15040954D02*
X19326135Y-15038561D01*
X19345316Y-15042861D02*
X19335697Y-15040954D01*
X19354976Y-15044285D02*
X19345316Y-15042861D01*
X19364658Y-15045231D02*
X19354976Y-15044285D01*
X19374345Y-15045705D02*
X19364658Y-15045231D01*
X19384020Y-15045710D02*
X19374345Y-15045705D01*
X19393665Y-15045252D02*
X19384020Y-15045710D01*
X19403262Y-15044335D02*
X19393665Y-15045252D01*
X19412794Y-15042964D02*
X19403262Y-15044335D01*
X19422243Y-15041144D02*
X19412794Y-15042964D01*
X19431593Y-15038880D02*
X19422243Y-15041144D01*
X19440825Y-15036175D02*
X19431593Y-15038880D01*
X19449921Y-15033035D02*
X19440825Y-15036175D01*
X19458865Y-15029465D02*
X19449921Y-15033035D01*
X19467639Y-15025469D02*
X19458865Y-15029465D01*
X19476225Y-15021052D02*
X19467639Y-15025469D01*
X19484606Y-15016219D02*
X19476225Y-15021052D01*
X19492764Y-15010975D02*
X19484606Y-15016219D01*
X19500682Y-15005323D02*
X19492764Y-15010975D01*
X19508342Y-14999269D02*
X19500682Y-15005323D01*
X19515727Y-14992818D02*
X19508342Y-14999269D01*
X19522819Y-14985974D02*
X19515727Y-14992818D01*
X19529601Y-14978742D02*
X19522819Y-14985974D01*
X19536055Y-14971127D02*
X19529601Y-14978742D01*
X19542164Y-14963133D02*
X19536055Y-14971127D01*
X19547909Y-14954766D02*
X19542164Y-14963133D01*
X19553275Y-14946029D02*
X19547909Y-14954766D01*
X21277229Y-11968301D02*
X19553275Y-14946029D01*
X21282191Y-11959228D02*
X21277229Y-11968301D01*
X21286746Y-11949884D02*
X21282191Y-11959228D01*
X21290897Y-11940288D02*
X21286746Y-11949884D01*
X21294646Y-11930462D02*
X21290897Y-11940288D01*
X21300944Y-11910202D02*
X21294646Y-11930462D01*
X21305658Y-11889266D02*
X21300944Y-11910202D01*
X21308804Y-11867822D02*
X21305658Y-11889266D01*
X21310399Y-11846035D02*
X21308804Y-11867822D01*
X21310459Y-11824069D02*
X21310399Y-11846035D01*
X21309001Y-11802090D02*
X21310459Y-11824069D01*
X21306042Y-11780263D02*
X21309001Y-11802090D01*
X21301599Y-11758753D02*
X21306042Y-11780263D01*
X21295689Y-11737726D02*
X21301599Y-11758753D01*
X21288327Y-11717347D02*
X21295689Y-11737726D01*
X21279531Y-11697781D02*
X21288327Y-11717347D01*
X21269317Y-11679194D02*
X21279531Y-11697781D01*
X21263683Y-11670319D02*
X21269317Y-11679194D01*
X21257702Y-11661750D02*
X21263683Y-11670319D01*
X21251374Y-11653509D02*
X21257702Y-11661750D01*
X21244703Y-11645615D02*
X21251374Y-11653509D01*
X19636704Y-9833430D02*
X21244703Y-11645615D01*
X19623184Y-9817155D02*
X19636704Y-9833430D01*
X19610043Y-9799301D02*
X19623184Y-9817155D01*
X19597349Y-9780047D02*
X19610043Y-9799301D01*
X19585169Y-9759572D02*
X19597349Y-9780047D01*
X19573571Y-9738056D02*
X19585169Y-9759572D01*
X19562625Y-9715677D02*
X19573571Y-9738056D01*
X19552398Y-9692615D02*
X19562625Y-9715677D01*
X19542957Y-9669049D02*
X19552398Y-9692615D01*
X19534372Y-9645159D02*
X19542957Y-9669049D01*
X19526711Y-9621123D02*
X19534372Y-9645159D01*
X19520041Y-9597122D02*
X19526711Y-9621123D01*
X19514431Y-9573333D02*
X19520041Y-9597122D01*
X19509949Y-9549938D02*
X19514431Y-9573333D01*
X19506664Y-9527114D02*
X19509949Y-9549938D01*
X19504642Y-9505041D02*
X19506664Y-9527114D01*
X19503953Y-9483898D02*
X19504642Y-9505041D01*
X19504203Y-6146192D02*
X19503953Y-9483898D01*
X19503623Y-6124954D02*
X19504203Y-6146192D01*
X19501922Y-6102625D02*
X19503623Y-6124954D01*
X19499156Y-6079391D02*
X19501922Y-6102625D01*
X19495383Y-6055440D02*
X19499156Y-6079391D01*
X19490660Y-6030959D02*
X19495383Y-6055440D01*
X19485045Y-6006137D02*
X19490660Y-6030959D01*
X19478596Y-5981160D02*
X19485045Y-6006137D01*
X19471368Y-5956216D02*
X19478596Y-5981160D01*
X19463421Y-5931492D02*
X19471368Y-5956216D01*
X19454811Y-5907175D02*
X19463421Y-5931492D01*
X19445595Y-5883454D02*
X19454811Y-5907175D01*
X19435832Y-5860516D02*
X19445595Y-5883454D01*
X19425577Y-5838547D02*
X19435832Y-5860516D01*
X19414889Y-5817736D02*
X19425577Y-5838547D01*
X19403826Y-5798270D02*
X19414889Y-5817736D01*
X19392443Y-5780337D02*
X19403826Y-5798270D01*
X18811453Y-4918252D02*
X19392443Y-5780337D01*
X18799034Y-4901355D02*
X18811453Y-4918252D01*
X18784927Y-4884933D02*
X18799034Y-4901355D01*
X18769292Y-4869070D02*
X18784927Y-4884933D01*
X18752290Y-4853851D02*
X18769292Y-4869070D01*
X18734079Y-4839361D02*
X18752290Y-4853851D01*
X18714820Y-4825686D02*
X18734079Y-4839361D01*
X18694672Y-4812909D02*
X18714820Y-4825686D01*
X18673795Y-4801117D02*
X18694672Y-4812909D01*
X18652349Y-4790394D02*
X18673795Y-4801117D01*
X18630493Y-4780825D02*
X18652349Y-4790394D01*
X18608388Y-4772495D02*
X18630493Y-4780825D01*
X18586192Y-4765489D02*
X18608388Y-4772495D01*
X18564066Y-4759892D02*
X18586192Y-4765489D01*
X18542170Y-4755789D02*
X18564066Y-4759892D01*
X18520662Y-4753264D02*
X18542170Y-4755789D01*
X18499704Y-4752404D02*
X18520662Y-4753264D01*
X17099740Y-4752404D02*
X18499704Y-4752404D01*
X17078526Y-4751804D02*
X17099740Y-4752404D01*
X17056243Y-4750044D02*
X17078526Y-4751804D01*
X17033078Y-4747183D02*
X17056243Y-4750044D01*
X17009217Y-4743281D02*
X17033078Y-4747183D01*
X16984847Y-4738397D02*
X17009217Y-4743281D01*
X16960154Y-4732590D02*
X16984847Y-4738397D01*
X16935325Y-4725920D02*
X16960154Y-4732590D01*
X16910546Y-4718446D02*
X16935325Y-4725920D01*
X16886003Y-4710228D02*
X16910546Y-4718446D01*
X16861883Y-4701324D02*
X16886003Y-4710228D01*
X16838372Y-4691795D02*
X16861883Y-4701324D01*
X16815657Y-4681699D02*
X16838372Y-4691795D01*
X16793925Y-4671097D02*
X16815657Y-4681699D01*
X16773361Y-4660047D02*
X16793925Y-4671097D01*
X16754152Y-4648609D02*
X16773361Y-4660047D01*
X16736485Y-4636842D02*
X16754152Y-4648609D01*
X15844592Y-4005895D02*
X16736485Y-4636842D01*
X15826920Y-3994133D02*
X15844592Y-4005895D01*
X15807708Y-3982699D02*
X15826920Y-3994133D01*
X15787142Y-3971653D02*
X15807708Y-3982699D01*
X15765410Y-3961053D02*
X15787142Y-3971653D01*
X15742696Y-3950960D02*
X15765410Y-3961053D01*
X15719186Y-3941433D02*
X15742696Y-3950960D01*
X15695068Y-3932531D02*
X15719186Y-3941433D01*
X15670527Y-3924314D02*
X15695068Y-3932531D01*
X15645749Y-3916841D02*
X15670527Y-3924314D01*
X15620920Y-3910172D02*
X15645749Y-3916841D01*
X15596227Y-3904365D02*
X15620920Y-3910172D01*
X15571855Y-3899482D02*
X15596227Y-3904365D01*
X15547990Y-3895579D02*
X15571855Y-3899482D01*
X15524819Y-3892719D02*
X15547990Y-3895579D01*
X15502527Y-3890959D02*
X15524819Y-3892719D01*
X15481301Y-3890359D02*
X15502527Y-3890959D01*
X11998291Y-3890359D02*
X15481301Y-3890359D01*
X11954122Y-3891256D02*
X11998291Y-3890359D01*
X11905221Y-3893827D02*
X11954122Y-3891256D01*
X11853206Y-3897891D02*
X11905221Y-3893827D01*
X11799699Y-3903266D02*
X11853206Y-3897891D01*
X11746319Y-3909771D02*
X11799699Y-3903266D01*
X11694686Y-3917224D02*
X11746319Y-3909771D01*
X11646421Y-3925444D02*
X11694686Y-3917224D01*
X11603144Y-3934249D02*
X11646421Y-3925444D01*
X6291122Y-5128402D02*
X11603144Y-3934249D01*
X6281120Y-5130909D02*
X6291122Y-5128402D01*
X6271245Y-5133902D02*
X6281120Y-5130909D01*
X6261510Y-5137366D02*
X6271245Y-5133902D01*
X6251926Y-5141285D02*
X6261510Y-5137366D01*
X6242507Y-5145644D02*
X6251926Y-5141285D01*
X6233265Y-5150427D02*
X6242507Y-5145644D01*
X6224212Y-5155618D02*
X6233265Y-5150427D01*
X6215360Y-5161201D02*
X6224212Y-5155618D01*
X6198313Y-5173484D02*
X6215360Y-5161201D01*
X6182224Y-5187149D02*
X6198313Y-5173484D01*
X6167192Y-5202072D02*
X6182224Y-5187149D01*
X6153318Y-5218128D02*
X6167192Y-5202072D01*
X6140701Y-5235190D02*
X6153318Y-5218128D01*
X6129442Y-5253135D02*
X6140701Y-5235190D01*
X6119640Y-5271836D02*
X6129442Y-5253135D01*
X6111396Y-5291169D02*
X6119640Y-5271836D01*
X6107890Y-5301034D02*
X6111396Y-5291169D01*
X6104811Y-5311009D02*
X6107890Y-5301034D01*
X6102171Y-5321080D02*
X6104811Y-5311009D01*
X6099982Y-5331230D02*
X6102171Y-5321080D01*
X6098259Y-5341444D02*
X6099982Y-5331230D01*
X6097012Y-5351707D02*
X6098259Y-5341444D01*
X6096255Y-5362003D02*
X6097012Y-5351707D01*
X6096000Y-5372315D02*
X6096255Y-5362003D01*
D11*
X8028743Y-7039911D02*
X8033699Y-7040288D01*
X8038582Y-7040908D01*
X8043387Y-7041767D01*
X8048107Y-7042857D01*
X8052736Y-7044172D01*
X8057268Y-7045706D01*
X8061697Y-7047454D01*
X8066017Y-7049408D01*
X8070222Y-7051563D01*
X8074305Y-7053912D01*
X8078261Y-7056450D01*
X8082083Y-7059170D01*
X8085766Y-7062067D01*
X8089303Y-7065133D01*
X8092688Y-7068363D01*
X8095915Y-7071750D01*
X8098979Y-7075289D01*
X8101872Y-7078974D01*
X8104589Y-7082797D01*
X8107123Y-7086754D01*
X8109469Y-7090837D01*
X8111621Y-7095041D01*
X8113572Y-7099359D01*
X8115317Y-7103786D01*
X8116848Y-7108315D01*
X8118161Y-7112941D01*
X8119248Y-7117656D01*
X8120105Y-7122454D01*
X8120724Y-7127331D01*
X8121101Y-7132279D01*
X8121227Y-7137292D01*
X8121101Y-7142311D01*
X8120724Y-7147264D01*
X8120105Y-7152145D01*
X8119248Y-7156948D01*
X8118161Y-7161666D01*
X8116848Y-7166294D01*
X8115316Y-7170825D01*
X8113572Y-7175254D01*
X8111621Y-7179573D01*
X8109469Y-7183778D01*
X8107123Y-7187861D01*
X8104588Y-7191817D01*
X8101871Y-7195640D01*
X8098978Y-7199323D01*
X8095915Y-7202861D01*
X8092688Y-7206247D01*
X8089302Y-7209475D01*
X8085765Y-7212539D01*
X8082083Y-7215434D01*
X8078260Y-7218152D01*
X8074304Y-7220687D01*
X8070221Y-7223035D01*
X8066016Y-7225188D01*
X8061696Y-7227140D01*
X8057267Y-7228885D01*
X8052735Y-7230418D01*
X8048106Y-7231731D01*
X8043386Y-7232820D01*
X8038582Y-7233677D01*
X8033699Y-7234297D01*
X8028743Y-7234673D01*
X8023721Y-7234800D01*
X8018708Y-7234673D01*
X8013760Y-7234297D01*
X8008884Y-7233677D01*
X8004086Y-7232820D01*
X7999372Y-7231731D01*
X7994747Y-7230418D01*
X7990219Y-7228885D01*
X7985794Y-7227140D01*
X7981476Y-7225188D01*
X7977274Y-7223035D01*
X7973192Y-7220687D01*
X7969237Y-7218152D01*
X7965415Y-7215434D01*
X7961732Y-7212539D01*
X7958195Y-7209475D01*
X7954809Y-7206247D01*
X7951581Y-7202861D01*
X7948516Y-7199323D01*
X7945622Y-7195640D01*
X7942903Y-7191817D01*
X7940367Y-7187861D01*
X7938019Y-7183778D01*
X7935865Y-7179573D01*
X7933912Y-7175254D01*
X7932166Y-7170825D01*
X7930632Y-7166294D01*
X7929318Y-7161666D01*
X7928229Y-7156948D01*
X7927371Y-7152145D01*
X7926751Y-7147264D01*
X7926374Y-7142311D01*
X7926247Y-7137292D01*
X7926374Y-7132279D01*
X7926751Y-7127331D01*
X7927371Y-7122454D01*
X7928229Y-7117656D01*
X7929318Y-7112941D01*
X7930632Y-7108315D01*
X7932166Y-7103786D01*
X7933912Y-7099359D01*
X7935865Y-7095041D01*
X7938019Y-7090837D01*
X7940367Y-7086754D01*
X7942903Y-7082797D01*
X7945622Y-7078974D01*
X7948516Y-7075289D01*
X7951581Y-7071750D01*
X7954809Y-7068363D01*
X7958195Y-7065133D01*
X7961732Y-7062067D01*
X7965415Y-7059170D01*
X7969237Y-7056450D01*
X7973192Y-7053912D01*
X7977274Y-7051563D01*
X7981476Y-7049408D01*
X7985794Y-7047454D01*
X7990219Y-7045706D01*
X7994747Y-7044172D01*
X7999372Y-7042857D01*
X8004086Y-7041767D01*
X8008884Y-7040908D01*
X8013760Y-7040288D01*
X8018708Y-7039911D01*
X8023721Y-7039784D01*
X8028743Y-7039911D01*
X11216439Y-4550785D02*
X11221392Y-4551162D01*
X11226273Y-4551782D01*
X11231075Y-4552640D01*
X11235792Y-4553729D01*
X11240419Y-4555043D01*
X11244949Y-4556577D01*
X11249376Y-4558323D01*
X11253694Y-4560276D01*
X11257897Y-4562429D01*
X11261979Y-4564777D01*
X11265934Y-4567313D01*
X11269755Y-4570032D01*
X11273436Y-4572926D01*
X11276972Y-4575991D01*
X11280357Y-4579219D01*
X11283583Y-4582604D01*
X11286646Y-4586142D01*
X11289538Y-4589824D01*
X11292255Y-4593646D01*
X11294789Y-4597601D01*
X11297135Y-4601682D01*
X11299286Y-4605885D01*
X11301237Y-4610202D01*
X11302982Y-4614627D01*
X11304513Y-4619155D01*
X11305826Y-4623779D01*
X11306913Y-4628493D01*
X11307770Y-4633291D01*
X11308389Y-4638167D01*
X11308765Y-4643114D01*
X11308892Y-4648127D01*
X11308765Y-4653150D01*
X11308389Y-4658107D01*
X11307770Y-4662991D01*
X11306913Y-4667796D01*
X11305826Y-4672516D01*
X11304513Y-4677146D01*
X11302982Y-4681678D01*
X11301237Y-4686108D01*
X11299286Y-4690428D01*
X11297135Y-4694633D01*
X11294789Y-4698716D01*
X11292255Y-4702672D01*
X11289538Y-4706495D01*
X11286646Y-4710178D01*
X11283583Y-4713715D01*
X11280357Y-4717100D01*
X11276972Y-4720327D01*
X11273436Y-4723390D01*
X11269755Y-4726284D01*
X11265934Y-4729000D01*
X11261979Y-4731535D01*
X11257897Y-4733881D01*
X11253694Y-4736033D01*
X11249376Y-4737984D01*
X11244949Y-4739728D01*
X11240419Y-4741260D01*
X11235792Y-4742572D01*
X11231075Y-4743660D01*
X11226273Y-4744516D01*
X11221392Y-4745136D01*
X11216439Y-4745512D01*
X11211420Y-4745638D01*
X11206404Y-4745512D01*
X11201454Y-4745136D01*
X11196575Y-4744516D01*
X11191774Y-4743660D01*
X11187058Y-4742572D01*
X11182431Y-4741260D01*
X11177901Y-4739728D01*
X11173473Y-4737984D01*
X11169154Y-4736033D01*
X11164950Y-4733881D01*
X11160867Y-4731535D01*
X11156911Y-4729000D01*
X11153087Y-4726284D01*
X11149404Y-4723390D01*
X11145865Y-4720327D01*
X11142478Y-4717100D01*
X11139249Y-4713715D01*
X11136184Y-4710178D01*
X11133289Y-4706495D01*
X11130570Y-4702672D01*
X11128033Y-4698716D01*
X11125685Y-4694633D01*
X11123531Y-4690428D01*
X11121577Y-4686108D01*
X11119831Y-4681678D01*
X11118298Y-4677146D01*
X11116983Y-4672516D01*
X11115894Y-4667796D01*
X11115036Y-4662991D01*
X11114416Y-4658107D01*
X11114039Y-4653150D01*
X11113912Y-4648127D01*
X11114039Y-4643114D01*
X11114416Y-4638167D01*
X11115036Y-4633291D01*
X11115894Y-4628493D01*
X11116983Y-4623779D01*
X11118298Y-4619154D01*
X11119831Y-4614627D01*
X11121577Y-4610201D01*
X11123531Y-4605884D01*
X11125685Y-4601682D01*
X11128033Y-4597600D01*
X11130570Y-4593645D01*
X11133289Y-4589823D01*
X11136184Y-4586141D01*
X11139249Y-4582604D01*
X11142478Y-4579218D01*
X11145865Y-4575990D01*
X11149404Y-4572926D01*
X11153087Y-4570031D01*
X11156911Y-4567313D01*
X11160867Y-4564777D01*
X11164950Y-4562429D01*
X11169154Y-4560275D01*
X11173473Y-4558322D01*
X11177901Y-4556576D01*
X11182431Y-4555043D01*
X11187058Y-4553729D01*
X11191774Y-4552640D01*
X11196575Y-4551782D01*
X11201454Y-4551162D01*
X11206404Y-4550785D01*
X11211420Y-4550659D01*
X11216439Y-4550785D01*
X11838742Y-8462346D02*
X11843698Y-8462722D01*
X11848581Y-8463343D01*
X11853386Y-8464200D01*
X11858106Y-8465289D01*
X11862735Y-8466604D01*
X11867267Y-8468137D01*
X11871696Y-8469883D01*
X11876016Y-8471836D01*
X11880221Y-8473990D01*
X11884304Y-8476338D01*
X11888260Y-8478874D01*
X11892083Y-8481593D01*
X11895766Y-8484488D01*
X11899303Y-8487552D01*
X11902688Y-8490780D01*
X11905915Y-8494166D01*
X11908979Y-8497704D01*
X11911872Y-8501386D01*
X11914589Y-8505208D01*
X11917123Y-8509163D01*
X11919470Y-8513245D01*
X11921621Y-8517448D01*
X11923573Y-8521765D01*
X11925317Y-8526191D01*
X11926849Y-8530719D01*
X11928161Y-8535343D01*
X11929249Y-8540057D01*
X11930106Y-8544855D01*
X11930725Y-8549731D01*
X11931101Y-8554679D01*
X11931228Y-8559692D01*
X11931101Y-8564714D01*
X11930725Y-8569670D01*
X11930106Y-8574553D01*
X11929249Y-8579358D01*
X11928161Y-8584078D01*
X11926849Y-8588707D01*
X11925317Y-8593239D01*
X11923573Y-8597668D01*
X11921621Y-8601988D01*
X11919470Y-8606193D01*
X11917123Y-8610276D01*
X11914589Y-8614232D01*
X11911872Y-8618054D01*
X11908979Y-8621737D01*
X11905915Y-8625274D01*
X11902688Y-8628659D01*
X11899303Y-8631887D01*
X11895766Y-8634950D01*
X11892083Y-8637843D01*
X11888260Y-8640560D01*
X11884304Y-8643094D01*
X11880221Y-8645441D01*
X11876016Y-8647592D01*
X11871696Y-8649543D01*
X11867267Y-8651288D01*
X11862735Y-8652819D01*
X11858106Y-8654132D01*
X11853386Y-8655220D01*
X11848581Y-8656076D01*
X11843698Y-8656696D01*
X11838742Y-8657072D01*
X11833720Y-8657198D01*
X11828707Y-8657072D01*
X11823759Y-8656696D01*
X11818884Y-8656076D01*
X11814085Y-8655220D01*
X11809371Y-8654132D01*
X11804747Y-8652819D01*
X11800219Y-8651288D01*
X11795794Y-8649543D01*
X11791477Y-8647592D01*
X11787274Y-8645440D01*
X11783192Y-8643094D01*
X11779237Y-8640559D01*
X11775415Y-8637843D01*
X11771733Y-8634949D01*
X11768195Y-8631886D01*
X11764810Y-8628659D01*
X11761581Y-8625274D01*
X11758517Y-8621737D01*
X11755622Y-8618054D01*
X11752904Y-8614231D01*
X11750367Y-8610276D01*
X11748019Y-8606192D01*
X11745866Y-8601987D01*
X11743913Y-8597668D01*
X11742166Y-8593239D01*
X11740633Y-8588706D01*
X11739319Y-8584077D01*
X11738230Y-8579358D01*
X11737372Y-8574553D01*
X11736752Y-8569670D01*
X11736375Y-8564714D01*
X11736248Y-8559692D01*
X11736375Y-8554679D01*
X11736752Y-8549731D01*
X11737372Y-8544855D01*
X11738230Y-8540057D01*
X11739319Y-8535343D01*
X11740633Y-8530719D01*
X11742166Y-8526191D01*
X11743913Y-8521765D01*
X11745866Y-8517448D01*
X11748019Y-8513245D01*
X11750367Y-8509163D01*
X11752904Y-8505208D01*
X11755622Y-8501386D01*
X11758517Y-8497704D01*
X11761581Y-8494166D01*
X11764810Y-8490780D01*
X11768195Y-8487552D01*
X11771733Y-8484488D01*
X11775415Y-8481593D01*
X11779237Y-8478874D01*
X11783192Y-8476338D01*
X11787274Y-8473990D01*
X11791477Y-8471836D01*
X11795794Y-8469883D01*
X11800219Y-8468137D01*
X11804747Y-8466604D01*
X11809371Y-8465289D01*
X11814085Y-8464200D01*
X11818884Y-8463343D01*
X11823759Y-8462722D01*
X11828707Y-8462346D01*
X11833720Y-8462219D01*
X11838742Y-8462346D01*
X17553708Y-6785949D02*
X17558663Y-6786326D01*
X17563547Y-6786946D01*
X17568351Y-6787804D01*
X17573071Y-6788893D01*
X17577701Y-6790207D01*
X17582233Y-6791741D01*
X17586662Y-6793487D01*
X17590982Y-6795440D01*
X17595187Y-6797594D01*
X17599270Y-6799942D01*
X17603226Y-6802479D01*
X17607048Y-6805198D01*
X17610731Y-6808093D01*
X17614268Y-6811158D01*
X17617653Y-6814387D01*
X17620881Y-6817774D01*
X17623944Y-6821312D01*
X17626837Y-6824996D01*
X17629554Y-6828819D01*
X17632089Y-6832776D01*
X17634435Y-6836859D01*
X17636587Y-6841064D01*
X17638538Y-6845383D01*
X17640282Y-6849811D01*
X17641814Y-6854341D01*
X17643126Y-6858968D01*
X17644214Y-6863685D01*
X17645071Y-6868486D01*
X17645690Y-6873366D01*
X17646066Y-6878317D01*
X17646193Y-6883334D01*
X17646066Y-6888353D01*
X17645690Y-6893306D01*
X17645071Y-6898186D01*
X17644214Y-6902989D01*
X17643126Y-6907707D01*
X17641814Y-6912334D01*
X17640282Y-6916865D01*
X17638538Y-6921293D01*
X17636587Y-6925612D01*
X17634435Y-6929816D01*
X17632089Y-6933899D01*
X17629554Y-6937854D01*
X17626837Y-6941677D01*
X17623944Y-6945360D01*
X17620881Y-6948897D01*
X17617653Y-6952282D01*
X17614268Y-6955510D01*
X17610731Y-6958574D01*
X17607048Y-6961468D01*
X17603226Y-6964185D01*
X17599270Y-6966721D01*
X17595187Y-6969068D01*
X17590982Y-6971220D01*
X17586662Y-6973172D01*
X17582233Y-6974917D01*
X17577701Y-6976450D01*
X17573071Y-6977763D01*
X17568351Y-6978851D01*
X17563547Y-6979708D01*
X17558663Y-6980328D01*
X17553708Y-6980704D01*
X17548685Y-6980831D01*
X17543672Y-6980704D01*
X17538725Y-6980328D01*
X17533849Y-6979708D01*
X17529051Y-6978851D01*
X17524337Y-6977763D01*
X17519713Y-6976450D01*
X17515185Y-6974917D01*
X17510759Y-6973172D01*
X17506442Y-6971220D01*
X17502239Y-6969068D01*
X17498157Y-6966721D01*
X17494202Y-6964185D01*
X17490381Y-6961468D01*
X17486698Y-6958574D01*
X17483161Y-6955510D01*
X17479775Y-6952282D01*
X17476546Y-6948897D01*
X17473482Y-6945360D01*
X17470587Y-6941677D01*
X17467869Y-6937854D01*
X17465332Y-6933899D01*
X17462984Y-6929816D01*
X17460830Y-6925612D01*
X17458877Y-6921293D01*
X17457131Y-6916865D01*
X17455598Y-6912334D01*
X17454284Y-6907707D01*
X17453194Y-6902989D01*
X17452337Y-6898186D01*
X17451716Y-6893306D01*
X17451340Y-6888353D01*
X17451213Y-6883334D01*
X17451340Y-6878317D01*
X17451716Y-6873366D01*
X17452337Y-6868487D01*
X17453194Y-6863686D01*
X17454284Y-6858968D01*
X17455598Y-6854342D01*
X17457131Y-6849811D01*
X17458877Y-6845383D01*
X17460830Y-6841064D01*
X17462984Y-6836860D01*
X17465332Y-6832776D01*
X17467869Y-6828820D01*
X17470587Y-6824997D01*
X17473482Y-6821313D01*
X17476546Y-6817775D01*
X17479775Y-6814388D01*
X17483161Y-6811159D01*
X17486698Y-6808093D01*
X17490381Y-6805198D01*
X17494202Y-6802479D01*
X17498157Y-6799942D01*
X17502239Y-6797594D01*
X17506442Y-6795440D01*
X17510759Y-6793487D01*
X17515185Y-6791741D01*
X17519713Y-6790207D01*
X17524337Y-6788893D01*
X17529051Y-6787804D01*
X17533849Y-6786946D01*
X17538725Y-6786326D01*
X17543672Y-6785949D01*
X17548685Y-6785822D01*
X17553708Y-6785949D01*
X19800617Y-10591749D02*
X19805570Y-10592126D01*
X19810451Y-10592746D01*
X19815254Y-10593604D01*
X19819972Y-10594693D01*
X19824600Y-10596008D01*
X19829131Y-10597541D01*
X19833559Y-10599287D01*
X19837879Y-10601241D01*
X19842083Y-10603395D01*
X19846167Y-10605743D01*
X19850123Y-10608280D01*
X19853945Y-10610999D01*
X19857629Y-10613894D01*
X19861166Y-10616959D01*
X19864552Y-10620188D01*
X19867781Y-10623575D01*
X19870845Y-10627113D01*
X19873739Y-10630797D01*
X19876457Y-10634620D01*
X19878993Y-10638576D01*
X19881340Y-10642660D01*
X19883493Y-10646864D01*
X19885445Y-10651183D01*
X19887191Y-10655610D01*
X19888723Y-10660140D01*
X19890037Y-10664767D01*
X19891125Y-10669483D01*
X19891982Y-10674284D01*
X19892602Y-10679163D01*
X19892979Y-10684113D01*
X19893105Y-10689129D01*
X19892979Y-10694148D01*
X19892602Y-10699101D01*
X19891982Y-10703982D01*
X19891125Y-10708784D01*
X19890037Y-10713501D01*
X19888723Y-10718128D01*
X19887191Y-10722658D01*
X19885445Y-10727085D01*
X19883493Y-10731404D01*
X19881340Y-10735607D01*
X19878993Y-10739689D01*
X19876457Y-10743643D01*
X19873739Y-10747465D01*
X19870845Y-10751146D01*
X19867781Y-10754682D01*
X19864552Y-10758067D01*
X19861166Y-10761293D01*
X19857629Y-10764356D01*
X19853945Y-10767248D01*
X19850123Y-10769965D01*
X19846167Y-10772499D01*
X19842083Y-10774845D01*
X19837879Y-10776997D01*
X19833559Y-10778947D01*
X19829131Y-10780692D01*
X19824600Y-10782223D01*
X19819972Y-10783536D01*
X19815254Y-10784623D01*
X19810451Y-10785480D01*
X19805570Y-10786099D01*
X19800617Y-10786475D01*
X19795598Y-10786602D01*
X19790581Y-10786475D01*
X19785631Y-10786099D01*
X19780752Y-10785480D01*
X19775952Y-10784623D01*
X19771235Y-10783536D01*
X19766608Y-10782223D01*
X19762078Y-10780692D01*
X19757651Y-10778947D01*
X19753332Y-10776997D01*
X19749128Y-10774845D01*
X19745044Y-10772499D01*
X19741088Y-10769965D01*
X19737265Y-10767248D01*
X19733581Y-10764356D01*
X19730043Y-10761293D01*
X19726656Y-10758067D01*
X19723427Y-10754682D01*
X19720362Y-10751146D01*
X19717466Y-10747465D01*
X19714747Y-10743643D01*
X19712210Y-10739689D01*
X19709862Y-10735607D01*
X19707708Y-10731404D01*
X19705755Y-10727085D01*
X19704008Y-10722658D01*
X19702475Y-10718128D01*
X19701161Y-10713501D01*
X19700071Y-10708784D01*
X19699214Y-10703982D01*
X19698593Y-10699101D01*
X19698217Y-10694148D01*
X19698090Y-10689129D01*
X19698217Y-10684113D01*
X19698593Y-10679163D01*
X19699214Y-10674284D01*
X19700071Y-10669483D01*
X19701161Y-10664767D01*
X19702475Y-10660140D01*
X19704008Y-10655610D01*
X19705755Y-10651183D01*
X19707708Y-10646864D01*
X19709862Y-10642660D01*
X19712210Y-10638576D01*
X19714747Y-10634620D01*
X19717466Y-10630797D01*
X19720362Y-10627113D01*
X19723427Y-10623575D01*
X19726656Y-10620188D01*
X19730043Y-10616959D01*
X19733581Y-10613894D01*
X19737265Y-10610999D01*
X19741088Y-10608280D01*
X19745044Y-10605743D01*
X19749128Y-10603395D01*
X19753332Y-10601241D01*
X19757651Y-10599287D01*
X19762078Y-10597541D01*
X19766608Y-10596008D01*
X19771235Y-10594693D01*
X19775952Y-10593604D01*
X19780752Y-10592746D01*
X19785631Y-10592126D01*
X19790581Y-10591749D01*
X19795598Y-10591622D01*
X19800617Y-10591749D01*
X16956840Y-10849983D02*
X16961792Y-10850360D01*
X16966673Y-10850981D01*
X16971475Y-10851839D01*
X16976193Y-10852929D01*
X16980819Y-10854244D01*
X16985349Y-10855779D01*
X16989777Y-10857526D01*
X16994095Y-10859480D01*
X16998298Y-10861635D01*
X17002380Y-10863985D01*
X17006334Y-10866523D01*
X17010156Y-10869243D01*
X17013837Y-10872139D01*
X17017373Y-10875205D01*
X17020758Y-10878435D01*
X17023984Y-10881823D01*
X17027047Y-10885362D01*
X17029939Y-10889046D01*
X17032656Y-10892869D01*
X17035190Y-10896826D01*
X17037536Y-10900909D01*
X17039687Y-10905113D01*
X17041638Y-10909431D01*
X17043382Y-10913858D01*
X17044914Y-10918387D01*
X17046226Y-10923012D01*
X17047314Y-10927727D01*
X17048171Y-10932526D01*
X17048790Y-10937402D01*
X17049166Y-10942350D01*
X17049293Y-10947363D01*
X17049166Y-10952382D01*
X17048790Y-10957335D01*
X17048171Y-10962216D01*
X17047314Y-10967019D01*
X17046226Y-10971737D01*
X17044914Y-10976365D01*
X17043382Y-10980896D01*
X17041638Y-10985324D01*
X17039687Y-10989644D01*
X17037536Y-10993848D01*
X17035190Y-10997932D01*
X17032656Y-11001888D01*
X17029939Y-11005710D01*
X17027047Y-11009394D01*
X17023984Y-11012931D01*
X17020758Y-11016317D01*
X17017373Y-11019545D01*
X17013837Y-11022609D01*
X17010156Y-11025504D01*
X17006334Y-11028222D01*
X17002380Y-11030757D01*
X16998298Y-11033104D01*
X16994095Y-11035257D01*
X16989777Y-11037209D01*
X16985349Y-11038955D01*
X16980819Y-11040487D01*
X16976193Y-11041801D01*
X16971475Y-11042889D01*
X16966673Y-11043746D01*
X16961792Y-11044366D01*
X16956840Y-11044743D01*
X16951820Y-11044869D01*
X16946804Y-11044743D01*
X16941854Y-11044366D01*
X16936975Y-11043746D01*
X16932174Y-11042889D01*
X16927458Y-11041801D01*
X16922831Y-11040487D01*
X16918301Y-11038955D01*
X16913874Y-11037209D01*
X16909555Y-11035257D01*
X16905351Y-11033104D01*
X16901267Y-11030757D01*
X16897311Y-11028222D01*
X16893488Y-11025504D01*
X16889804Y-11022609D01*
X16886266Y-11019545D01*
X16882879Y-11016317D01*
X16879650Y-11012931D01*
X16876585Y-11009394D01*
X16873689Y-11005710D01*
X16870970Y-11001888D01*
X16868433Y-10997932D01*
X16866085Y-10993848D01*
X16863931Y-10989644D01*
X16861978Y-10985324D01*
X16860231Y-10980896D01*
X16858698Y-10976365D01*
X16857384Y-10971737D01*
X16856294Y-10967019D01*
X16855437Y-10962216D01*
X16854816Y-10957335D01*
X16854440Y-10952382D01*
X16854313Y-10947363D01*
X16854440Y-10942350D01*
X16854816Y-10937402D01*
X16855437Y-10932525D01*
X16856294Y-10927727D01*
X16857384Y-10923012D01*
X16858698Y-10918386D01*
X16860231Y-10913857D01*
X16861978Y-10909431D01*
X16863931Y-10905112D01*
X16866085Y-10900908D01*
X16868433Y-10896825D01*
X16870970Y-10892869D01*
X16873689Y-10889045D01*
X16876585Y-10885361D01*
X16879650Y-10881822D01*
X16882879Y-10878435D01*
X16886266Y-10875205D01*
X16889804Y-10872139D01*
X16893488Y-10869242D01*
X16897311Y-10866522D01*
X16901267Y-10863984D01*
X16905351Y-10861635D01*
X16909555Y-10859480D01*
X16913874Y-10857526D01*
X16918301Y-10855778D01*
X16922831Y-10854244D01*
X16927458Y-10852929D01*
X16932174Y-10851839D01*
X16936975Y-10850981D01*
X16941854Y-10850360D01*
X16946804Y-10849983D01*
X16951820Y-10849856D01*
X16956840Y-10849983D01*
X11582860Y-10717704D02*
X11582860Y-12118902D01*
X10181591Y-12118902D01*
X10181591Y-10717634D01*
X11582860Y-10717704D01*
X9677860Y-12595152D02*
X8276591Y-12595152D01*
X8276591Y-11193884D01*
X9677860Y-11193884D01*
X9677860Y-12595152D01*
X7772860Y-12595152D02*
X6371590Y-12595152D01*
X6371590Y-11193884D01*
X7772860Y-11193884D01*
X7772860Y-12595152D01*
X19202896Y-7593505D02*
X17801627Y-7593505D01*
X17801627Y-6194384D01*
X19202896Y-6194384D01*
X19202896Y-7593505D01*
X17297896Y-10451003D02*
X15896627Y-10451003D01*
X15896627Y-9051888D01*
X17297896Y-9051888D01*
X17297896Y-10451003D01*
X17297896Y-6641003D02*
X15896627Y-6641003D01*
X15896627Y-5241883D01*
X17297896Y-5241883D01*
X17297896Y-6641003D01*
X15392895Y-10213903D02*
X13991662Y-10213903D01*
X13991662Y-8812634D01*
X15392895Y-8812634D01*
X15392895Y-10213903D01*
X15392895Y-6403902D02*
X13991662Y-6403902D01*
X13991662Y-5002630D01*
X15392895Y-5002630D01*
X15392895Y-6403902D01*
X13487860Y-9974755D02*
X12086591Y-9974755D01*
X12086591Y-8575637D01*
X13487860Y-8575637D01*
X13487860Y-9974755D01*
X13487860Y-6164755D02*
X12086591Y-6164755D01*
X12086591Y-4765634D01*
X13487860Y-4765634D01*
X13487860Y-6164755D01*
X9677860Y-10690151D02*
X8276591Y-10690151D01*
X8276591Y-9288955D01*
X9677860Y-9288955D01*
X9677860Y-10690151D01*
X9677860Y-8785153D02*
X8276591Y-8785153D01*
X8276591Y-7383883D01*
X9677860Y-7383883D01*
X9677860Y-8785153D01*
X9677860Y-6880151D02*
X8276591Y-6880151D01*
X8276591Y-5478880D01*
X9677860Y-5478880D01*
X9677860Y-6880151D01*
X7772860Y-8785153D02*
X6371590Y-8785153D01*
X6371590Y-7383883D01*
X7772860Y-7383883D01*
X7772860Y-8785153D01*
X7772860Y-6880152D02*
X6371590Y-6880152D01*
X6371590Y-5478880D01*
X7772860Y-5478880D01*
X7772860Y-6880152D01*
X7772860Y-10690151D02*
X6371590Y-10690151D01*
X6371590Y-9288955D01*
X7772860Y-9288955D01*
X7772860Y-10690151D01*
X11582860Y-8308901D02*
X10181591Y-8308901D01*
X10181591Y-6907630D01*
X11582860Y-6907630D01*
X11582860Y-8308901D01*
X11582860Y-10213903D02*
X10181591Y-10213903D01*
X10181591Y-8812634D01*
X11582860Y-8812634D01*
X11582860Y-10213903D01*
X13481481Y-10713452D02*
X14249895Y-10717704D01*
X14249895Y-12118902D01*
X12848663Y-12118902D01*
X12848662Y-11879754D01*
X12086591Y-11879754D01*
X12086591Y-10480638D01*
X13487860Y-10480638D01*
X13481481Y-10713452D01*
X16758110Y-11638454D02*
X16057529Y-12851269D01*
X14846795Y-12150652D01*
X15545295Y-10937802D01*
X16758110Y-11638454D01*
X11582860Y-6403902D02*
X10181591Y-6403902D01*
X10181591Y-5002630D01*
X11582860Y-5002630D01*
X11582860Y-6403902D01*
X13487860Y-8069753D02*
X12086591Y-8069753D01*
X12086591Y-6670634D01*
X13487860Y-6670634D01*
X13487860Y-8069753D01*
X15392895Y-8308901D02*
X13991662Y-8308901D01*
X13991662Y-6907630D01*
X15392895Y-6907630D01*
X15392895Y-8308901D01*
X19202896Y-9498504D02*
X17801627Y-9498504D01*
X17801627Y-8099389D01*
X19202896Y-8099389D01*
X19202896Y-9498504D01*
X17297896Y-8546005D02*
X15896627Y-8546005D01*
X15896627Y-7146886D01*
X17297896Y-7146886D01*
X17297896Y-8546005D01*
D12*
X6331777Y-15382193D02*
X6331777Y-15182193D01*
X6331777Y-15182193D02*
X6379396Y-15182193D01*
X6379396Y-15182193D02*
X6407968Y-15191717D01*
X6407968Y-15191717D02*
X6427015Y-15210765D01*
X6427015Y-15210765D02*
X6436539Y-15229812D01*
X6436539Y-15229812D02*
X6446063Y-15267908D01*
X6446063Y-15267908D02*
X6446063Y-15296479D01*
X6446063Y-15296479D02*
X6436539Y-15334574D01*
X6436539Y-15334574D02*
X6427015Y-15353622D01*
X6427015Y-15353622D02*
X6407968Y-15372670D01*
X6407968Y-15372670D02*
X6379396Y-15382193D01*
X6379396Y-15382193D02*
X6331777Y-15382193D01*
X6531777Y-15382193D02*
X6531777Y-15248860D01*
X6531777Y-15286955D02*
X6541301Y-15267908D01*
X6541301Y-15267908D02*
X6550825Y-15258384D01*
X6550825Y-15258384D02*
X6569872Y-15248860D01*
X6569872Y-15248860D02*
X6588920Y-15248860D01*
X6655587Y-15382193D02*
X6655587Y-15248860D01*
X6655587Y-15182193D02*
X6646063Y-15191717D01*
X6646063Y-15191717D02*
X6655587Y-15201241D01*
X6655587Y-15201241D02*
X6665110Y-15191717D01*
X6665110Y-15191717D02*
X6655587Y-15182193D01*
X6655587Y-15182193D02*
X6655587Y-15201241D01*
X6779396Y-15382193D02*
X6760348Y-15372670D01*
X6760348Y-15372670D02*
X6750825Y-15353622D01*
X6750825Y-15353622D02*
X6750825Y-15182193D01*
X6884158Y-15382193D02*
X6865110Y-15372670D01*
X6865110Y-15372670D02*
X6855587Y-15353622D01*
X6855587Y-15353622D02*
X6855587Y-15182193D01*
X7112729Y-15382193D02*
X7112729Y-15182193D01*
X7112729Y-15182193D02*
X7179396Y-15325051D01*
X7179396Y-15325051D02*
X7246063Y-15182193D01*
X7246063Y-15182193D02*
X7246063Y-15382193D01*
X7427015Y-15382193D02*
X7427015Y-15277432D01*
X7427015Y-15277432D02*
X7417491Y-15258384D01*
X7417491Y-15258384D02*
X7398444Y-15248860D01*
X7398444Y-15248860D02*
X7360348Y-15248860D01*
X7360348Y-15248860D02*
X7341301Y-15258384D01*
X7427015Y-15372670D02*
X7407968Y-15382193D01*
X7407968Y-15382193D02*
X7360348Y-15382193D01*
X7360348Y-15382193D02*
X7341301Y-15372670D01*
X7341301Y-15372670D02*
X7331777Y-15353622D01*
X7331777Y-15353622D02*
X7331777Y-15334574D01*
X7331777Y-15334574D02*
X7341301Y-15315527D01*
X7341301Y-15315527D02*
X7360348Y-15306003D01*
X7360348Y-15306003D02*
X7407968Y-15306003D01*
X7407968Y-15306003D02*
X7427015Y-15296479D01*
X7522253Y-15248860D02*
X7522253Y-15448860D01*
X7522253Y-15258384D02*
X7541301Y-15248860D01*
X7541301Y-15248860D02*
X7579396Y-15248860D01*
X7579396Y-15248860D02*
X7598444Y-15258384D01*
X7598444Y-15258384D02*
X7607968Y-15267908D01*
X7607968Y-15267908D02*
X7617491Y-15286955D01*
X7617491Y-15286955D02*
X7617491Y-15344098D01*
X7617491Y-15344098D02*
X7607968Y-15363146D01*
X7607968Y-15363146D02*
X7598444Y-15372670D01*
X7598444Y-15372670D02*
X7579396Y-15382193D01*
X7579396Y-15382193D02*
X7541301Y-15382193D01*
X7541301Y-15382193D02*
X7522253Y-15372670D01*
X7703206Y-15363146D02*
X7712729Y-15372670D01*
X7712729Y-15372670D02*
X7703206Y-15382193D01*
X7703206Y-15382193D02*
X7693682Y-15372670D01*
X7693682Y-15372670D02*
X7703206Y-15363146D01*
X7703206Y-15363146D02*
X7703206Y-15382193D01*
X7703206Y-15258384D02*
X7712729Y-15267908D01*
X7712729Y-15267908D02*
X7703206Y-15277432D01*
X7703206Y-15277432D02*
X7693682Y-15267908D01*
X7693682Y-15267908D02*
X7703206Y-15258384D01*
X7703206Y-15258384D02*
X7703206Y-15277432D01*
M02*
