G04 #@! TF.GenerationSoftware,KiCad,Pcbnew,8.0.0*
G04 #@! TF.CreationDate,2024-03-05T17:39:38+11:00*
G04 #@! TF.ProjectId,ergodash-mini-double-pcb-plate,6572676f-6461-4736-982d-6d696e692d64,rev?*
G04 #@! TF.SameCoordinates,Original*
G04 #@! TF.FileFunction,Profile,NP*
%FSLAX46Y46*%
G04 Gerber Fmt 4.6, Leading zero omitted, Abs format (unit mm)*
G04 Created by KiCad (PCBNEW 8.0.0) date 2024-03-05 17:39:38*
%MOMM*%
%LPD*%
G01*
G04 APERTURE LIST*
G04 #@! TA.AperFunction,Profile*
%ADD10C,0.499992*%
G04 #@! TD*
G04 #@! TA.AperFunction,Profile*
%ADD11C,0.499998*%
G04 #@! TD*
G04 APERTURE END LIST*
D10*
X197821217Y-112274682D02*
X198031121Y-111912042D01*
X210148331Y-118923486D01*
X208616217Y-121572137D01*
X209254391Y-122462197D01*
X208254618Y-124191865D01*
X207163477Y-124081445D01*
X196528284Y-142481278D01*
X197160462Y-143367455D01*
X196160336Y-145097123D01*
X195075545Y-144990579D01*
X193573065Y-147569390D01*
X181455500Y-140557931D01*
X181695389Y-140143418D01*
X179922680Y-139117539D01*
X179667271Y-138161157D01*
X183520661Y-131495423D01*
X184477043Y-131240014D01*
X184737040Y-131389947D01*
X191747792Y-119273797D01*
X191490971Y-119125276D01*
X191235913Y-118168893D01*
X195089304Y-111503167D01*
X196045685Y-111247750D01*
X197821217Y-112274682D01*
X181321797Y-102749688D02*
X181531700Y-102387032D01*
X193648560Y-109398492D01*
X192116799Y-112047143D01*
X192754975Y-112937203D01*
X191755202Y-114666871D01*
X190663706Y-114556451D01*
X180028866Y-132956284D01*
X180660691Y-133842462D01*
X179660920Y-135572137D01*
X178576126Y-135465592D01*
X177073296Y-138044396D01*
X164956082Y-131032937D01*
X165195973Y-130618424D01*
X163422913Y-129592545D01*
X163167500Y-128636163D01*
X167021244Y-121970422D01*
X167977623Y-121715020D01*
X168237622Y-121864945D01*
X175248375Y-109748803D01*
X174991555Y-109600274D01*
X174736142Y-108643884D01*
X178589886Y-101978158D01*
X179546265Y-101722741D01*
X181321797Y-102749688D01*
D11*
X80287430Y-108753460D02*
X80336989Y-108757227D01*
X80385822Y-108763430D01*
X80433869Y-108772008D01*
X80481068Y-108782900D01*
X80527359Y-108796044D01*
X80572680Y-108811378D01*
X80616971Y-108828842D01*
X80660170Y-108848375D01*
X80702217Y-108869914D01*
X80743050Y-108893398D01*
X80782609Y-108918766D01*
X80820833Y-108945957D01*
X80857660Y-108974909D01*
X80893030Y-109005562D01*
X80926882Y-109037852D01*
X80959155Y-109071720D01*
X80989787Y-109107104D01*
X81018718Y-109143942D01*
X81045887Y-109182173D01*
X81071233Y-109221736D01*
X81094695Y-109262570D01*
X81116212Y-109304612D01*
X81135722Y-109347802D01*
X81153166Y-109392078D01*
X81168482Y-109437379D01*
X81181608Y-109483644D01*
X81192485Y-109530811D01*
X81201051Y-109578819D01*
X81207245Y-109627606D01*
X81211006Y-109677111D01*
X81212273Y-109727273D01*
X81211006Y-109777463D01*
X81207244Y-109826991D01*
X81201050Y-109875796D01*
X81192484Y-109923816D01*
X81181607Y-109970990D01*
X81168480Y-110017257D01*
X81153164Y-110062557D01*
X81135720Y-110106828D01*
X81116209Y-110150010D01*
X81094692Y-110192040D01*
X81071230Y-110232859D01*
X81045883Y-110272404D01*
X81018714Y-110310616D01*
X80989782Y-110347433D01*
X80959149Y-110382793D01*
X80926876Y-110416636D01*
X80893024Y-110448902D01*
X80857654Y-110479528D01*
X80820826Y-110508453D01*
X80782602Y-110535618D01*
X80743043Y-110560960D01*
X80702210Y-110584419D01*
X80660163Y-110605933D01*
X80616964Y-110625442D01*
X80572674Y-110642884D01*
X80527353Y-110658199D01*
X80481063Y-110671325D01*
X80433864Y-110682201D01*
X80385818Y-110690767D01*
X80336986Y-110696961D01*
X80287428Y-110700722D01*
X80237206Y-110701989D01*
X80187076Y-110700722D01*
X80137600Y-110696961D01*
X80088841Y-110690767D01*
X80040860Y-110682201D01*
X79993717Y-110671325D01*
X79947475Y-110658199D01*
X79902195Y-110642884D01*
X79857938Y-110625442D01*
X79814765Y-110605933D01*
X79772739Y-110584419D01*
X79731921Y-110560960D01*
X79692371Y-110535618D01*
X79654152Y-110508453D01*
X79617325Y-110479528D01*
X79581951Y-110448902D01*
X79548092Y-110416636D01*
X79515809Y-110382793D01*
X79485164Y-110347433D01*
X79456217Y-110310616D01*
X79429032Y-110272404D01*
X79403667Y-110232859D01*
X79380187Y-110192040D01*
X79358651Y-110150010D01*
X79339121Y-110106828D01*
X79321658Y-110062557D01*
X79306325Y-110017257D01*
X79293182Y-109970990D01*
X79282291Y-109923816D01*
X79273713Y-109875796D01*
X79267510Y-109826991D01*
X79263744Y-109777463D01*
X79262474Y-109727273D01*
X79263744Y-109677111D01*
X79267510Y-109627606D01*
X79273713Y-109578819D01*
X79282291Y-109530811D01*
X79293182Y-109483644D01*
X79306325Y-109437379D01*
X79321658Y-109392078D01*
X79339121Y-109347802D01*
X79358651Y-109304612D01*
X79380187Y-109262570D01*
X79403667Y-109221736D01*
X79429032Y-109182173D01*
X79456217Y-109143942D01*
X79485164Y-109107104D01*
X79515809Y-109071720D01*
X79548092Y-109037852D01*
X79581951Y-109005562D01*
X79617325Y-108974909D01*
X79654152Y-108945957D01*
X79692371Y-108918766D01*
X79731921Y-108893398D01*
X79772739Y-108869914D01*
X79814765Y-108848375D01*
X79857938Y-108828842D01*
X79902195Y-108811378D01*
X79947475Y-108796044D01*
X79993717Y-108782900D01*
X80040860Y-108772008D01*
X80088841Y-108763430D01*
X80137600Y-108757227D01*
X80187076Y-108753460D01*
X80237206Y-108752191D01*
X80287430Y-108753460D01*
D10*
X60959999Y-126772088D02*
X60959999Y-53723153D01*
X60962615Y-126874634D02*
X60959999Y-126772088D01*
X60970375Y-126975877D02*
X60962615Y-126874634D01*
X60983152Y-127075691D02*
X60970375Y-126975877D01*
X61000817Y-127173946D02*
X60983152Y-127075691D01*
X61023244Y-127270514D02*
X61000817Y-127173946D01*
X61050302Y-127365268D02*
X61023244Y-127270514D01*
X61081865Y-127458079D02*
X61050302Y-127365268D01*
X61117803Y-127548820D02*
X61081865Y-127458079D01*
X61157990Y-127637362D02*
X61117803Y-127548820D01*
X61202296Y-127723577D02*
X61157990Y-127637362D01*
X61250593Y-127807336D02*
X61202296Y-127723577D01*
X61302754Y-127888513D02*
X61250593Y-127807336D01*
X61358651Y-127966978D02*
X61302754Y-127888513D01*
X61418154Y-128042605D02*
X61358651Y-127966978D01*
X61481136Y-128115263D02*
X61418154Y-128042605D01*
X61547469Y-128184827D02*
X61481136Y-128115263D01*
X61617024Y-128251167D02*
X61547469Y-128184827D01*
X61689673Y-128314155D02*
X61617024Y-128251167D01*
X61765289Y-128373663D02*
X61689673Y-128314155D01*
X61843743Y-128429564D02*
X61765289Y-128373663D01*
X61924907Y-128481728D02*
X61843743Y-128429564D01*
X62008653Y-128530029D02*
X61924907Y-128481728D01*
X62094852Y-128574337D02*
X62008653Y-128530029D01*
X62183376Y-128614525D02*
X62094852Y-128574337D01*
X62274098Y-128650465D02*
X62183376Y-128614525D01*
X62366889Y-128682029D02*
X62274098Y-128650465D01*
X62461621Y-128709088D02*
X62366889Y-128682029D01*
X62558165Y-128731514D02*
X62461621Y-128709088D01*
X62656395Y-128749180D02*
X62558165Y-128731514D01*
X62756180Y-128761957D02*
X62656395Y-128749180D01*
X62857394Y-128769717D02*
X62756180Y-128761957D01*
X62959908Y-128772332D02*
X62857394Y-128769717D01*
X153672135Y-128772332D02*
X62959908Y-128772332D01*
X153884847Y-128777522D02*
X153672135Y-128772332D01*
X154109223Y-128792747D02*
X153884847Y-128777522D01*
X154343352Y-128817493D02*
X154109223Y-128792747D01*
X154585322Y-128851245D02*
X154343352Y-128817493D01*
X154833219Y-128893489D02*
X154585322Y-128851245D01*
X155085133Y-128943709D02*
X154833219Y-128893489D01*
X155339151Y-129001392D02*
X155085133Y-128943709D01*
X155593362Y-129066022D02*
X155339151Y-129001392D01*
X155845852Y-129137085D02*
X155593362Y-129066022D01*
X156094711Y-129214065D02*
X155845852Y-129137085D01*
X156338026Y-129296449D02*
X156094711Y-129214065D01*
X156573885Y-129383721D02*
X156338026Y-129296449D01*
X156800376Y-129475367D02*
X156573885Y-129383721D01*
X157015588Y-129570873D02*
X156800376Y-129475367D01*
X157217607Y-129669722D02*
X157015588Y-129570873D01*
X157404522Y-129771401D02*
X157217607Y-129669722D01*
X192798012Y-150191239D02*
X157404522Y-129771401D01*
X192888126Y-150240231D02*
X192798012Y-150191239D01*
X192979692Y-150284117D02*
X192888126Y-150240231D01*
X193072534Y-150322944D02*
X192979692Y-150284117D01*
X193166478Y-150356760D02*
X193072534Y-150322944D01*
X193261347Y-150385611D02*
X193166478Y-150356760D01*
X193356968Y-150409544D02*
X193261347Y-150385611D01*
X193453164Y-150428607D02*
X193356968Y-150409544D01*
X193549760Y-150442847D02*
X193453164Y-150428607D01*
X193646582Y-150452312D02*
X193549760Y-150442847D01*
X193743454Y-150457047D02*
X193646582Y-150452312D01*
X193840201Y-150457101D02*
X193743454Y-150457047D01*
X193936647Y-150452521D02*
X193840201Y-150457101D01*
X194032618Y-150443353D02*
X193936647Y-150452521D01*
X194127939Y-150429645D02*
X194032618Y-150443353D01*
X194222434Y-150411444D02*
X194127939Y-150429645D01*
X194315927Y-150388797D02*
X194222434Y-150411444D01*
X194408245Y-150361751D02*
X194315927Y-150388797D01*
X194499211Y-150330354D02*
X194408245Y-150361751D01*
X194588651Y-150294653D02*
X194499211Y-150330354D01*
X194676389Y-150254694D02*
X194588651Y-150294653D01*
X194762250Y-150210525D02*
X194676389Y-150254694D01*
X194846059Y-150162194D02*
X194762250Y-150210525D01*
X194927641Y-150109746D02*
X194846059Y-150162194D01*
X195006820Y-150053230D02*
X194927641Y-150109746D01*
X195083422Y-149992692D02*
X195006820Y-150053230D01*
X195157271Y-149928181D02*
X195083422Y-149992692D01*
X195228192Y-149859742D02*
X195157271Y-149928181D01*
X195296010Y-149787423D02*
X195228192Y-149859742D01*
X195360549Y-149711271D02*
X195296010Y-149787423D01*
X195421635Y-149631333D02*
X195360549Y-149711271D01*
X195479092Y-149547657D02*
X195421635Y-149631333D01*
X195532746Y-149460290D02*
X195479092Y-149547657D01*
X212772290Y-119683007D02*
X195532746Y-149460290D01*
X212821910Y-119592282D02*
X212772290Y-119683007D01*
X212867464Y-119498839D02*
X212821910Y-119592282D01*
X212908974Y-119402884D02*
X212867464Y-119498839D01*
X212946460Y-119304625D02*
X212908974Y-119402884D01*
X213009442Y-119102016D02*
X212946460Y-119304625D01*
X213056580Y-118892665D02*
X213009442Y-119102016D01*
X213088038Y-118678225D02*
X213056580Y-118892665D01*
X213103985Y-118460349D02*
X213088038Y-118678225D01*
X213104587Y-118240689D02*
X213103985Y-118460349D01*
X213090011Y-118020898D02*
X213104587Y-118240689D01*
X213060424Y-117802628D02*
X213090011Y-118020898D01*
X213015993Y-117587532D02*
X213060424Y-117802628D01*
X212956885Y-117377263D02*
X213015993Y-117587532D01*
X212883267Y-117173472D02*
X212956885Y-117377263D01*
X212795305Y-116977814D02*
X212883267Y-117173472D01*
X212693167Y-116791940D02*
X212795305Y-116977814D01*
X212636834Y-116703188D02*
X212693167Y-116791940D01*
X212577019Y-116617502D02*
X212636834Y-116703188D01*
X212513744Y-116535089D02*
X212577019Y-116617502D01*
X212447029Y-116456155D02*
X212513744Y-116535089D01*
X196367035Y-98334298D02*
X212447029Y-116456155D01*
X196231844Y-98171552D02*
X196367035Y-98334298D01*
X196100434Y-97993011D02*
X196231844Y-98171552D01*
X195973488Y-97800470D02*
X196100434Y-97993011D01*
X195851688Y-97595720D02*
X195973488Y-97800470D01*
X195735714Y-97380555D02*
X195851688Y-97595720D01*
X195626250Y-97156766D02*
X195735714Y-97380555D01*
X195523975Y-96926147D02*
X195626250Y-97156766D01*
X195429572Y-96690490D02*
X195523975Y-96926147D01*
X195343723Y-96451587D02*
X195429572Y-96690490D01*
X195267109Y-96211232D02*
X195343723Y-96451587D01*
X195200412Y-95971217D02*
X195267109Y-96211232D01*
X195144313Y-95733334D02*
X195200412Y-95971217D01*
X195099494Y-95499377D02*
X195144313Y-95733334D01*
X195066636Y-95271137D02*
X195099494Y-95499377D01*
X195046422Y-95050408D02*
X195066636Y-95271137D01*
X195039532Y-94838983D02*
X195046422Y-95050408D01*
X195042033Y-61461923D02*
X195039532Y-94838983D01*
X195036233Y-61249545D02*
X195042033Y-61461923D01*
X195019216Y-61026248D02*
X195036233Y-61249545D01*
X194991556Y-60793908D02*
X195019216Y-61026248D01*
X194953827Y-60554399D02*
X194991556Y-60793908D01*
X194906601Y-60309594D02*
X194953827Y-60554399D01*
X194850453Y-60061369D02*
X194906601Y-60309594D01*
X194785956Y-59811598D02*
X194850453Y-60061369D01*
X194713684Y-59562156D02*
X194785956Y-59811598D01*
X194634210Y-59314916D02*
X194713684Y-59562156D01*
X194548108Y-59071753D02*
X194634210Y-59314916D01*
X194455952Y-58834542D02*
X194548108Y-59071753D01*
X194358315Y-58605158D02*
X194455952Y-58834542D01*
X194255771Y-58385473D02*
X194358315Y-58605158D01*
X194148893Y-58177364D02*
X194255771Y-58385473D01*
X194038255Y-57982704D02*
X194148893Y-58177364D01*
X193924431Y-57803369D02*
X194038255Y-57982704D01*
X188114533Y-49182519D02*
X193924431Y-57803369D01*
X187990337Y-49013552D02*
X188114533Y-49182519D01*
X187849268Y-48849328D02*
X187990337Y-49013552D01*
X187692923Y-48690697D02*
X187849268Y-48849328D01*
X187522897Y-48538508D02*
X187692923Y-48690697D01*
X187340790Y-48393611D02*
X187522897Y-48538508D01*
X187148199Y-48256856D02*
X187340790Y-48393611D01*
X186946720Y-48129093D02*
X187148199Y-48256856D01*
X186737951Y-48011170D02*
X186946720Y-48129093D01*
X186523489Y-47903939D02*
X186737951Y-48011170D01*
X186304932Y-47808248D02*
X186523489Y-47903939D01*
X186083877Y-47724948D02*
X186304932Y-47808248D01*
X185861921Y-47654887D02*
X186083877Y-47724948D01*
X185640662Y-47598917D02*
X185861921Y-47654887D01*
X185421696Y-47557886D02*
X185640662Y-47598917D01*
X185206622Y-47532644D02*
X185421696Y-47557886D01*
X184997036Y-47524041D02*
X185206622Y-47532644D01*
X170997403Y-47524041D02*
X184997036Y-47524041D01*
X170785261Y-47518042D02*
X170997403Y-47524041D01*
X170562433Y-47500442D02*
X170785261Y-47518042D01*
X170330782Y-47471834D02*
X170562433Y-47500442D01*
X170092174Y-47432812D02*
X170330782Y-47471834D01*
X169848473Y-47383969D02*
X170092174Y-47432812D01*
X169601543Y-47325901D02*
X169848473Y-47383969D01*
X169353249Y-47259200D02*
X169601543Y-47325901D01*
X169105455Y-47184461D02*
X169353249Y-47259200D01*
X168860026Y-47102276D02*
X169105455Y-47184461D01*
X168618825Y-47013241D02*
X168860026Y-47102276D01*
X168383719Y-46917949D02*
X168618825Y-47013241D01*
X168156571Y-46816994D02*
X168383719Y-46917949D01*
X167939245Y-46710969D02*
X168156571Y-46816994D01*
X167733607Y-46600469D02*
X167939245Y-46710969D01*
X167541520Y-46486087D02*
X167733607Y-46600469D01*
X167364849Y-46368417D02*
X167541520Y-46486087D01*
X158445923Y-40058953D02*
X167364849Y-46368417D01*
X158269198Y-39941332D02*
X158445923Y-40058953D01*
X158077078Y-39826991D02*
X158269198Y-39941332D01*
X157871423Y-39716527D02*
X158077078Y-39826991D01*
X157654096Y-39610533D02*
X157871423Y-39716527D01*
X157426956Y-39509603D02*
X157654096Y-39610533D01*
X157191865Y-39414332D02*
X157426956Y-39509603D01*
X156950683Y-39325313D02*
X157191865Y-39414332D01*
X156705272Y-39243142D02*
X156950683Y-39325313D01*
X156457492Y-39168413D02*
X156705272Y-39243142D01*
X156209204Y-39101719D02*
X156457492Y-39168413D01*
X155962268Y-39043655D02*
X156209204Y-39101719D01*
X155718547Y-38994816D02*
X155962268Y-39043655D01*
X155479900Y-38955795D02*
X155718547Y-38994816D01*
X155248188Y-38927188D02*
X155479900Y-38955795D01*
X155025273Y-38909587D02*
X155248188Y-38927188D01*
X154813015Y-38903588D02*
X155025273Y-38909587D01*
X119982910Y-38903588D02*
X154813015Y-38903588D01*
X119541225Y-38912562D02*
X119982910Y-38903588D01*
X119052208Y-38938275D02*
X119541225Y-38912562D01*
X118532062Y-38978912D02*
X119052208Y-38938275D01*
X117996988Y-39032660D02*
X118532062Y-38978912D01*
X117463187Y-39097706D02*
X117996988Y-39032660D01*
X116946861Y-39172236D02*
X117463187Y-39097706D01*
X116464212Y-39254436D02*
X116946861Y-39172236D01*
X116031441Y-39342492D02*
X116464212Y-39254436D01*
X62911217Y-51284020D02*
X116031441Y-39342492D01*
X62811202Y-51309087D02*
X62911217Y-51284020D01*
X62712454Y-51339019D02*
X62811202Y-51309087D01*
X62615100Y-51373659D02*
X62712454Y-51339019D01*
X62519264Y-51412852D02*
X62615100Y-51373659D01*
X62425071Y-51456440D02*
X62519264Y-51412852D01*
X62332647Y-51504268D02*
X62425071Y-51456440D01*
X62242116Y-51556178D02*
X62332647Y-51504268D01*
X62153604Y-51612014D02*
X62242116Y-51556178D01*
X61983135Y-51734840D02*
X62153604Y-51612014D01*
X61822240Y-51871493D02*
X61983135Y-51734840D01*
X61671921Y-52020722D02*
X61822240Y-51871493D01*
X61533177Y-52181275D02*
X61671921Y-52020722D01*
X61407009Y-52351901D02*
X61533177Y-52181275D01*
X61294417Y-52531346D02*
X61407009Y-52351901D01*
X61196403Y-52718361D02*
X61294417Y-52531346D01*
X61113965Y-52911692D02*
X61196403Y-52718361D01*
X61078901Y-53010336D02*
X61113965Y-52911692D01*
X61048106Y-53110089D02*
X61078901Y-53010336D01*
X61021706Y-53210795D02*
X61048106Y-53110089D01*
X60999825Y-53312299D02*
X61021706Y-53210795D01*
X60982589Y-53414443D02*
X60999825Y-53312299D01*
X60970123Y-53517071D02*
X60982589Y-53414443D01*
X60962551Y-53620027D02*
X60970123Y-53517071D01*
X60959999Y-53723153D02*
X60962551Y-53620027D01*
D11*
X80287430Y-70399106D02*
X80336989Y-70402876D01*
X80385822Y-70409083D01*
X80433869Y-70417668D01*
X80481068Y-70428567D01*
X80527359Y-70441719D01*
X80572680Y-70457063D01*
X80616971Y-70474537D01*
X80660170Y-70494080D01*
X80702217Y-70515629D01*
X80743050Y-70539125D01*
X80782609Y-70564504D01*
X80820833Y-70591705D01*
X80857660Y-70620668D01*
X80893030Y-70651330D01*
X80926882Y-70683629D01*
X80959155Y-70717505D01*
X80989787Y-70752895D01*
X81018718Y-70789738D01*
X81045887Y-70827973D01*
X81071233Y-70867537D01*
X81094695Y-70908370D01*
X81116212Y-70950410D01*
X81135722Y-70993595D01*
X81153166Y-71037864D01*
X81168482Y-71083155D01*
X81181608Y-71129406D01*
X81192485Y-71176557D01*
X81201051Y-71224545D01*
X81207245Y-71273309D01*
X81211006Y-71322787D01*
X81212273Y-71372918D01*
X81211006Y-71423111D01*
X81207244Y-71472643D01*
X81201050Y-71521454D01*
X81192484Y-71569481D01*
X81181607Y-71616664D01*
X81168480Y-71662942D01*
X81153164Y-71708253D01*
X81135720Y-71752537D01*
X81116209Y-71795732D01*
X81094692Y-71837777D01*
X81071230Y-71878611D01*
X81045883Y-71918172D01*
X81018714Y-71956400D01*
X80989782Y-71993233D01*
X80959149Y-72028610D01*
X80926876Y-72062470D01*
X80893024Y-72094752D01*
X80857654Y-72125395D01*
X80820826Y-72154337D01*
X80782602Y-72181517D01*
X80743043Y-72206875D01*
X80702210Y-72230348D01*
X80660163Y-72251876D01*
X80616964Y-72271398D01*
X80572674Y-72288852D01*
X80527353Y-72304178D01*
X80481063Y-72317313D01*
X80433864Y-72328197D01*
X80385818Y-72336769D01*
X80336986Y-72342968D01*
X80287428Y-72346732D01*
X80237206Y-72348000D01*
X80187076Y-72346732D01*
X80137600Y-72342968D01*
X80088841Y-72336769D01*
X80040860Y-72328197D01*
X79993717Y-72317313D01*
X79947475Y-72304178D01*
X79902195Y-72288852D01*
X79857938Y-72271398D01*
X79814765Y-72251876D01*
X79772739Y-72230348D01*
X79731921Y-72206875D01*
X79692371Y-72181517D01*
X79654152Y-72154337D01*
X79617325Y-72125395D01*
X79581951Y-72094752D01*
X79548092Y-72062470D01*
X79515809Y-72028610D01*
X79485164Y-71993233D01*
X79456217Y-71956400D01*
X79429032Y-71918172D01*
X79403667Y-71878611D01*
X79380187Y-71837777D01*
X79358651Y-71795732D01*
X79339121Y-71752537D01*
X79321658Y-71708253D01*
X79306325Y-71662942D01*
X79293182Y-71616664D01*
X79282291Y-71569481D01*
X79273713Y-71521454D01*
X79267510Y-71472643D01*
X79263744Y-71423111D01*
X79262474Y-71372918D01*
X79263744Y-71322787D01*
X79267510Y-71273309D01*
X79273713Y-71224545D01*
X79282291Y-71176557D01*
X79293182Y-71129406D01*
X79306325Y-71083155D01*
X79321658Y-71037864D01*
X79339121Y-70993595D01*
X79358651Y-70950410D01*
X79380187Y-70908370D01*
X79403667Y-70867537D01*
X79429032Y-70827973D01*
X79456217Y-70789738D01*
X79485164Y-70752895D01*
X79515809Y-70717505D01*
X79548092Y-70683629D01*
X79581951Y-70651330D01*
X79617325Y-70620668D01*
X79654152Y-70591705D01*
X79692371Y-70564504D01*
X79731921Y-70539125D01*
X79772739Y-70515629D01*
X79814765Y-70494080D01*
X79857938Y-70474537D01*
X79902195Y-70457063D01*
X79947475Y-70441719D01*
X79993717Y-70428567D01*
X80040860Y-70417668D01*
X80088841Y-70409083D01*
X80137600Y-70402876D01*
X80187076Y-70399106D01*
X80237206Y-70397836D01*
X80287430Y-70399106D01*
X112164395Y-45507854D02*
X112213923Y-45511621D01*
X112262728Y-45517823D01*
X112310747Y-45526401D01*
X112357922Y-45537291D01*
X112404189Y-45550433D01*
X112449489Y-45565765D01*
X112493760Y-45583226D01*
X112536941Y-45602755D01*
X112578972Y-45624290D01*
X112619790Y-45647769D01*
X112659336Y-45673132D01*
X112697548Y-45700316D01*
X112734364Y-45729261D01*
X112769725Y-45759905D01*
X112803568Y-45792186D01*
X112835833Y-45826043D01*
X112866459Y-45861415D01*
X112895385Y-45898240D01*
X112922550Y-45936457D01*
X112947892Y-45976005D01*
X112971350Y-46016822D01*
X112992865Y-46058846D01*
X113012374Y-46102016D01*
X113029816Y-46146271D01*
X113045130Y-46191550D01*
X113058257Y-46237790D01*
X113069133Y-46284931D01*
X113077699Y-46332911D01*
X113083893Y-46381668D01*
X113087654Y-46431142D01*
X113088921Y-46481271D01*
X113087654Y-46531501D01*
X113083893Y-46581067D01*
X113077699Y-46629906D01*
X113069133Y-46677958D01*
X113058257Y-46725161D01*
X113045130Y-46771456D01*
X113029816Y-46816781D01*
X113012374Y-46861075D01*
X112992865Y-46904277D01*
X112971350Y-46946326D01*
X112947892Y-46987161D01*
X112922550Y-47026722D01*
X112895385Y-47064947D01*
X112866459Y-47101775D01*
X112835833Y-47137146D01*
X112803568Y-47170999D01*
X112769725Y-47203271D01*
X112734364Y-47233904D01*
X112697548Y-47262835D01*
X112659336Y-47290004D01*
X112619790Y-47315349D01*
X112578972Y-47338810D01*
X112536941Y-47360326D01*
X112493760Y-47379837D01*
X112449489Y-47397280D01*
X112404189Y-47412595D01*
X112357922Y-47425721D01*
X112310747Y-47436597D01*
X112262728Y-47445162D01*
X112213923Y-47451356D01*
X112164395Y-47455116D01*
X112114205Y-47456384D01*
X112064043Y-47455116D01*
X112014538Y-47451356D01*
X111965750Y-47445162D01*
X111917743Y-47436597D01*
X111870576Y-47425721D01*
X111824311Y-47412595D01*
X111779010Y-47397280D01*
X111734734Y-47379837D01*
X111691544Y-47360326D01*
X111649501Y-47338810D01*
X111608668Y-47315349D01*
X111569105Y-47290004D01*
X111530874Y-47262835D01*
X111494036Y-47233904D01*
X111458652Y-47203271D01*
X111424784Y-47170999D01*
X111392493Y-47137146D01*
X111361841Y-47101775D01*
X111332889Y-47064947D01*
X111305698Y-47026722D01*
X111280330Y-46987161D01*
X111256845Y-46946326D01*
X111235306Y-46904277D01*
X111215774Y-46861075D01*
X111198310Y-46816781D01*
X111182975Y-46771456D01*
X111169831Y-46725161D01*
X111158940Y-46677958D01*
X111150362Y-46629906D01*
X111144159Y-46581067D01*
X111140392Y-46531501D01*
X111139122Y-46481271D01*
X111140392Y-46431141D01*
X111144159Y-46381666D01*
X111150362Y-46332907D01*
X111158940Y-46284926D01*
X111169831Y-46237785D01*
X111182975Y-46191544D01*
X111198310Y-46146265D01*
X111215774Y-46102010D01*
X111235306Y-46058839D01*
X111256845Y-46016815D01*
X111280330Y-45975998D01*
X111305698Y-45936451D01*
X111332889Y-45898234D01*
X111361841Y-45861409D01*
X111392493Y-45826037D01*
X111424784Y-45792180D01*
X111458652Y-45759899D01*
X111494036Y-45729256D01*
X111530874Y-45700312D01*
X111569105Y-45673128D01*
X111608668Y-45647766D01*
X111649501Y-45624287D01*
X111691544Y-45602752D01*
X111734734Y-45583224D01*
X111779010Y-45565763D01*
X111824311Y-45550432D01*
X111870576Y-45537290D01*
X111917743Y-45526400D01*
X111965750Y-45517823D01*
X112014538Y-45511621D01*
X112064043Y-45507854D01*
X112114205Y-45506585D01*
X112164395Y-45507854D01*
X118387420Y-84623455D02*
X118436980Y-84627222D01*
X118485813Y-84633425D01*
X118533860Y-84642002D01*
X118581060Y-84652893D01*
X118627351Y-84666036D01*
X118672673Y-84681370D01*
X118716964Y-84698832D01*
X118760164Y-84718362D01*
X118802211Y-84739898D01*
X118843045Y-84763379D01*
X118882605Y-84788743D01*
X118920829Y-84815929D01*
X118957657Y-84844875D01*
X118993028Y-84875521D01*
X119026881Y-84907803D01*
X119059154Y-84941663D01*
X119089787Y-84977036D01*
X119118719Y-85013864D01*
X119145889Y-85052083D01*
X119171235Y-85091632D01*
X119194697Y-85132451D01*
X119216215Y-85174477D01*
X119235726Y-85217649D01*
X119253170Y-85261906D01*
X119268486Y-85307186D01*
X119281613Y-85353428D01*
X119292490Y-85400571D01*
X119301056Y-85448552D01*
X119307251Y-85497312D01*
X119311012Y-85546787D01*
X119312279Y-85596917D01*
X119311012Y-85647141D01*
X119307251Y-85696700D01*
X119301056Y-85745533D01*
X119292490Y-85793580D01*
X119281613Y-85840779D01*
X119268486Y-85887070D01*
X119253170Y-85932391D01*
X119235726Y-85976682D01*
X119216215Y-86019881D01*
X119194697Y-86061928D01*
X119171235Y-86102761D01*
X119145889Y-86142320D01*
X119118719Y-86180544D01*
X119089787Y-86217371D01*
X119059154Y-86252742D01*
X119026881Y-86286593D01*
X118993028Y-86318866D01*
X118957657Y-86349498D01*
X118920829Y-86378429D01*
X118882605Y-86405598D01*
X118843045Y-86430944D01*
X118802211Y-86454406D01*
X118760164Y-86475923D01*
X118716964Y-86495434D01*
X118672673Y-86512877D01*
X118627351Y-86528193D01*
X118581060Y-86541319D01*
X118533860Y-86552196D01*
X118485813Y-86560762D01*
X118436980Y-86566956D01*
X118387420Y-86570717D01*
X118337197Y-86571984D01*
X118287068Y-86570717D01*
X118237594Y-86566956D01*
X118188836Y-86560762D01*
X118140855Y-86552196D01*
X118093714Y-86541319D01*
X118047473Y-86528191D01*
X118002193Y-86512875D01*
X117957937Y-86495431D01*
X117914766Y-86475920D01*
X117872741Y-86454403D01*
X117831923Y-86430941D01*
X117792374Y-86405594D01*
X117754155Y-86378425D01*
X117717329Y-86349493D01*
X117681955Y-86318861D01*
X117648096Y-86286588D01*
X117615814Y-86252736D01*
X117585169Y-86217365D01*
X117556223Y-86180538D01*
X117529037Y-86142314D01*
X117503673Y-86102755D01*
X117480192Y-86061921D01*
X117458656Y-86019874D01*
X117439127Y-85976675D01*
X117421664Y-85932385D01*
X117406331Y-85887064D01*
X117393188Y-85840774D01*
X117382297Y-85793576D01*
X117373720Y-85745530D01*
X117367517Y-85696697D01*
X117363750Y-85647139D01*
X117362480Y-85596917D01*
X117363750Y-85546787D01*
X117367517Y-85497312D01*
X117373720Y-85448552D01*
X117382297Y-85400571D01*
X117393188Y-85353428D01*
X117406331Y-85307186D01*
X117421664Y-85261906D01*
X117439127Y-85217649D01*
X117458656Y-85174477D01*
X117480192Y-85132451D01*
X117503673Y-85091632D01*
X117529037Y-85052083D01*
X117556223Y-85013864D01*
X117585169Y-84977036D01*
X117615814Y-84941663D01*
X117648096Y-84907803D01*
X117681955Y-84875521D01*
X117717329Y-84844875D01*
X117754155Y-84815929D01*
X117792374Y-84788743D01*
X117831923Y-84763379D01*
X117872741Y-84739898D01*
X117914766Y-84718362D01*
X117957937Y-84698832D01*
X118002193Y-84681370D01*
X118047473Y-84666036D01*
X118093714Y-84652893D01*
X118140855Y-84642002D01*
X118188836Y-84633425D01*
X118237594Y-84627222D01*
X118287068Y-84623455D01*
X118337197Y-84622186D01*
X118387420Y-84623455D01*
X175537075Y-67859493D02*
X175586634Y-67863260D01*
X175635467Y-67869462D01*
X175683514Y-67878040D01*
X175730714Y-67888930D01*
X175777005Y-67902073D01*
X175822327Y-67917407D01*
X175866618Y-67934870D01*
X175909817Y-67954401D01*
X175951865Y-67975939D01*
X175992698Y-67999422D01*
X176032258Y-68024789D01*
X176070482Y-68051979D01*
X176107310Y-68080930D01*
X176142681Y-68111582D01*
X176176533Y-68143872D01*
X176208806Y-68177740D01*
X176239439Y-68213124D01*
X176268371Y-68249962D01*
X176295540Y-68288194D01*
X176320887Y-68327758D01*
X176344349Y-68368593D01*
X176365866Y-68410637D01*
X176385377Y-68453829D01*
X176402821Y-68498108D01*
X176418137Y-68543412D01*
X176431264Y-68589680D01*
X176442141Y-68636851D01*
X176450707Y-68684864D01*
X176456901Y-68733657D01*
X176460662Y-68783168D01*
X176461930Y-68833337D01*
X176460662Y-68883527D01*
X176456901Y-68933056D01*
X176450707Y-68981863D01*
X176442141Y-69029886D01*
X176431264Y-69077066D01*
X176418137Y-69123340D01*
X176402821Y-69168647D01*
X176385377Y-69212926D01*
X176365866Y-69256117D01*
X176344349Y-69298157D01*
X176320887Y-69338987D01*
X176295540Y-69378544D01*
X176268371Y-69416767D01*
X176239439Y-69453596D01*
X176208806Y-69488968D01*
X176176533Y-69522824D01*
X176142681Y-69555102D01*
X176107310Y-69585740D01*
X176070482Y-69614679D01*
X176032258Y-69641855D01*
X175992698Y-69667209D01*
X175951865Y-69690679D01*
X175909817Y-69712204D01*
X175866618Y-69731722D01*
X175822327Y-69749174D01*
X175777005Y-69764497D01*
X175730714Y-69777630D01*
X175683514Y-69788513D01*
X175635467Y-69797083D01*
X175586634Y-69803281D01*
X175537075Y-69807044D01*
X175486851Y-69808312D01*
X175436722Y-69807044D01*
X175387248Y-69803281D01*
X175338489Y-69797083D01*
X175290508Y-69788513D01*
X175243367Y-69777630D01*
X175197125Y-69764497D01*
X175151845Y-69749174D01*
X175107589Y-69731722D01*
X175064417Y-69712204D01*
X175022391Y-69690679D01*
X174981573Y-69667209D01*
X174942024Y-69641855D01*
X174903805Y-69614679D01*
X174866978Y-69585740D01*
X174831605Y-69555102D01*
X174797746Y-69522824D01*
X174765463Y-69488968D01*
X174734817Y-69453596D01*
X174705871Y-69416767D01*
X174678685Y-69378544D01*
X174653321Y-69338987D01*
X174629840Y-69298157D01*
X174608304Y-69256117D01*
X174588774Y-69212926D01*
X174571312Y-69168647D01*
X174555978Y-69123340D01*
X174542835Y-69077066D01*
X174531944Y-69029886D01*
X174523366Y-68981863D01*
X174517163Y-68933056D01*
X174513397Y-68883527D01*
X174512127Y-68833337D01*
X174513397Y-68783169D01*
X174517163Y-68733659D01*
X174523366Y-68684868D01*
X174531944Y-68636856D01*
X174542835Y-68589685D01*
X174555978Y-68543418D01*
X174571312Y-68498114D01*
X174588774Y-68453835D01*
X174608304Y-68410643D01*
X174629840Y-68368599D01*
X174653321Y-68327765D01*
X174678685Y-68288201D01*
X174705871Y-68249969D01*
X174734817Y-68213130D01*
X174765463Y-68177746D01*
X174797746Y-68143878D01*
X174831605Y-68111587D01*
X174866978Y-68080935D01*
X174903805Y-68051984D01*
X174942024Y-68024793D01*
X174981573Y-67999425D01*
X175022391Y-67975942D01*
X175064417Y-67954403D01*
X175107589Y-67934872D01*
X175151845Y-67917408D01*
X175197125Y-67902074D01*
X175243367Y-67888931D01*
X175290508Y-67878040D01*
X175338489Y-67869463D01*
X175387248Y-67863260D01*
X175436722Y-67859493D01*
X175486851Y-67858224D01*
X175537075Y-67859493D01*
X198006167Y-105917492D02*
X198055699Y-105921259D01*
X198104509Y-105927462D01*
X198152536Y-105936040D01*
X198199719Y-105946932D01*
X198245997Y-105960075D01*
X198291308Y-105975410D01*
X198335592Y-105992874D01*
X198378787Y-106012406D01*
X198420831Y-106033945D01*
X198461665Y-106057429D01*
X198501226Y-106082797D01*
X198539454Y-106109988D01*
X198576287Y-106138940D01*
X198611664Y-106169592D01*
X198645524Y-106201882D01*
X198677806Y-106235750D01*
X198708448Y-106271133D01*
X198737390Y-106307971D01*
X198764571Y-106346201D01*
X198789928Y-106385764D01*
X198813401Y-106426597D01*
X198834929Y-106468638D01*
X198854451Y-106511827D01*
X198871905Y-106556103D01*
X198887231Y-106601403D01*
X198900366Y-106647667D01*
X198911250Y-106694833D01*
X198919822Y-106742839D01*
X198926021Y-106791625D01*
X198929785Y-106841129D01*
X198931053Y-106891290D01*
X198929785Y-106941481D01*
X198926021Y-106991011D01*
X198919822Y-107039816D01*
X198911250Y-107087837D01*
X198900366Y-107135013D01*
X198887231Y-107181281D01*
X198871905Y-107226582D01*
X198854451Y-107270854D01*
X198834929Y-107314036D01*
X198813401Y-107356067D01*
X198789928Y-107396886D01*
X198764571Y-107436433D01*
X198737390Y-107474645D01*
X198708448Y-107511462D01*
X198677806Y-107546823D01*
X198645524Y-107580666D01*
X198611664Y-107612932D01*
X198576287Y-107643558D01*
X198539454Y-107672484D01*
X198501226Y-107699649D01*
X198461665Y-107724991D01*
X198420831Y-107748450D01*
X198378787Y-107769965D01*
X198335592Y-107789473D01*
X198291308Y-107806916D01*
X198245997Y-107822231D01*
X198199719Y-107835357D01*
X198152536Y-107846233D01*
X198104509Y-107854799D01*
X198055699Y-107860993D01*
X198006167Y-107864754D01*
X197955975Y-107866021D01*
X197905813Y-107864754D01*
X197856309Y-107860993D01*
X197807522Y-107854799D01*
X197759515Y-107846233D01*
X197712348Y-107835357D01*
X197666084Y-107822231D01*
X197620783Y-107806916D01*
X197576507Y-107789473D01*
X197533317Y-107769965D01*
X197491275Y-107748450D01*
X197450442Y-107724991D01*
X197410879Y-107699649D01*
X197372648Y-107672484D01*
X197335810Y-107643558D01*
X197300426Y-107612932D01*
X197266558Y-107580666D01*
X197234268Y-107546823D01*
X197203615Y-107511462D01*
X197174663Y-107474645D01*
X197147472Y-107436433D01*
X197122104Y-107396886D01*
X197098620Y-107356067D01*
X197077081Y-107314036D01*
X197057548Y-107270854D01*
X197040084Y-107226582D01*
X197024749Y-107181281D01*
X197011606Y-107135013D01*
X197000714Y-107087837D01*
X196992136Y-107039816D01*
X196985933Y-106991011D01*
X196982166Y-106941481D01*
X196980896Y-106891290D01*
X196982166Y-106841129D01*
X196985933Y-106791625D01*
X196992136Y-106742839D01*
X197000714Y-106694833D01*
X197011606Y-106647667D01*
X197024749Y-106601403D01*
X197040084Y-106556103D01*
X197057548Y-106511827D01*
X197077081Y-106468638D01*
X197098620Y-106426597D01*
X197122104Y-106385764D01*
X197147472Y-106346201D01*
X197174663Y-106307971D01*
X197203615Y-106271133D01*
X197234268Y-106235750D01*
X197266558Y-106201882D01*
X197300426Y-106169592D01*
X197335810Y-106138940D01*
X197372648Y-106109988D01*
X197410879Y-106082797D01*
X197450442Y-106057429D01*
X197491275Y-106033945D01*
X197533317Y-106012406D01*
X197576507Y-105992874D01*
X197620783Y-105975410D01*
X197666084Y-105960075D01*
X197712348Y-105946932D01*
X197759515Y-105936040D01*
X197807522Y-105927462D01*
X197856309Y-105921259D01*
X197905813Y-105917492D01*
X197955975Y-105916223D01*
X198006167Y-105917492D01*
X169568396Y-108499829D02*
X169617924Y-108503599D01*
X169666730Y-108509807D01*
X169714750Y-108518391D01*
X169761925Y-108529290D01*
X169808194Y-108542442D01*
X169853494Y-108557786D01*
X169897766Y-108575260D01*
X169940947Y-108594803D01*
X169982978Y-108616352D01*
X170023797Y-108639847D01*
X170063343Y-108665226D01*
X170101555Y-108692428D01*
X170138371Y-108721390D01*
X170173732Y-108752051D01*
X170207576Y-108784350D01*
X170239841Y-108818226D01*
X170270467Y-108853615D01*
X170299393Y-108890458D01*
X170326557Y-108928692D01*
X170351899Y-108968256D01*
X170375358Y-109009089D01*
X170396872Y-109051128D01*
X170416381Y-109094312D01*
X170433823Y-109138580D01*
X170449138Y-109183870D01*
X170462264Y-109230120D01*
X170473140Y-109277270D01*
X170481706Y-109325257D01*
X170487900Y-109374019D01*
X170491661Y-109423496D01*
X170492928Y-109473626D01*
X170491661Y-109523819D01*
X170487900Y-109573351D01*
X170481706Y-109622161D01*
X170473140Y-109670188D01*
X170462264Y-109717371D01*
X170449138Y-109763649D01*
X170433823Y-109808960D01*
X170416381Y-109853243D01*
X170396872Y-109896437D01*
X170375358Y-109938481D01*
X170351899Y-109979315D01*
X170326557Y-110018875D01*
X170299393Y-110057102D01*
X170270467Y-110093935D01*
X170239841Y-110129311D01*
X170207576Y-110163171D01*
X170173732Y-110195452D01*
X170138371Y-110226094D01*
X170101555Y-110255035D01*
X170063343Y-110282215D01*
X170023797Y-110307572D01*
X169982978Y-110331044D01*
X169940947Y-110352572D01*
X169897766Y-110372093D01*
X169853494Y-110389547D01*
X169808194Y-110404872D01*
X169761925Y-110418007D01*
X169714750Y-110428891D01*
X169666730Y-110437463D01*
X169617924Y-110443661D01*
X169568396Y-110447425D01*
X169518204Y-110448693D01*
X169468043Y-110447425D01*
X169418538Y-110443661D01*
X169369752Y-110437463D01*
X169321744Y-110428891D01*
X169274578Y-110418007D01*
X169228314Y-110404872D01*
X169183013Y-110389547D01*
X169138737Y-110372093D01*
X169095547Y-110352572D01*
X169053505Y-110331044D01*
X169012672Y-110307572D01*
X168973109Y-110282215D01*
X168934878Y-110255035D01*
X168898040Y-110226094D01*
X168862656Y-110195452D01*
X168828788Y-110163171D01*
X168796497Y-110129311D01*
X168765845Y-110093935D01*
X168736893Y-110057102D01*
X168709702Y-110018875D01*
X168684334Y-109979315D01*
X168660849Y-109938481D01*
X168639310Y-109896437D01*
X168619778Y-109853243D01*
X168602314Y-109808960D01*
X168586979Y-109763649D01*
X168573835Y-109717371D01*
X168562943Y-109670188D01*
X168554365Y-109622161D01*
X168548162Y-109573351D01*
X168544395Y-109523819D01*
X168543125Y-109473626D01*
X168544395Y-109423495D01*
X168548162Y-109374017D01*
X168554365Y-109325253D01*
X168562943Y-109277265D01*
X168573835Y-109230115D01*
X168586979Y-109183864D01*
X168602314Y-109138574D01*
X168619778Y-109094305D01*
X168639310Y-109051121D01*
X168660849Y-109009082D01*
X168684334Y-108968249D01*
X168709702Y-108928685D01*
X168736893Y-108890451D01*
X168765845Y-108853609D01*
X168796497Y-108818219D01*
X168828788Y-108784345D01*
X168862656Y-108752046D01*
X168898040Y-108721385D01*
X168934878Y-108692423D01*
X168973109Y-108665222D01*
X169012672Y-108639844D01*
X169053505Y-108616349D01*
X169095547Y-108594800D01*
X169138737Y-108575258D01*
X169183013Y-108557784D01*
X169228314Y-108542441D01*
X169274578Y-108529289D01*
X169321744Y-108518390D01*
X169369752Y-108509806D01*
X169418538Y-108503599D01*
X169468043Y-108499829D01*
X169518204Y-108498559D01*
X169568396Y-108499829D01*
X115828598Y-107177041D02*
X115828598Y-121189019D01*
X101815911Y-121189019D01*
X101815911Y-107176339D01*
X115828598Y-107177041D01*
X96778603Y-125951524D02*
X82765908Y-125951524D01*
X82765908Y-111938836D01*
X96778603Y-111938836D01*
X96778603Y-125951524D01*
X77728600Y-125951524D02*
X63715905Y-125951524D01*
X63715905Y-111938836D01*
X77728600Y-111938836D01*
X77728600Y-125951524D01*
X192028956Y-75935052D02*
X178016270Y-75935052D01*
X178016270Y-61943841D01*
X192028956Y-61943841D01*
X192028956Y-75935052D01*
X172978955Y-104510034D02*
X158966271Y-104510034D01*
X158966271Y-90518884D01*
X172978955Y-90518884D01*
X172978955Y-104510034D01*
X172978955Y-66410027D02*
X158966271Y-66410027D01*
X158966271Y-52418832D01*
X172978955Y-52418832D01*
X172978955Y-66410027D01*
X153928955Y-102139031D02*
X139916619Y-102139031D01*
X139916619Y-88126336D01*
X153928955Y-88126336D01*
X153928955Y-102139031D01*
X153928955Y-64039025D02*
X139916619Y-64039025D01*
X139916619Y-50026299D01*
X153928955Y-50026299D01*
X153928955Y-64039025D01*
X134878601Y-99747552D02*
X120865914Y-99747552D01*
X120865914Y-85756371D01*
X134878601Y-85756371D01*
X134878601Y-99747552D01*
X134878601Y-61647546D02*
X120865914Y-61647546D01*
X120865914Y-47656335D01*
X134878601Y-47656335D01*
X134878601Y-61647546D01*
X96778603Y-106901513D02*
X82765908Y-106901513D01*
X82765908Y-92889550D01*
X96778603Y-92889550D01*
X96778603Y-106901513D01*
X96778603Y-87851525D02*
X82765908Y-87851525D01*
X82765908Y-73838830D01*
X96778603Y-73838830D01*
X96778603Y-87851525D01*
X96778603Y-68801507D02*
X82765908Y-68801507D01*
X82765908Y-54788796D01*
X96778603Y-54788796D01*
X96778603Y-68801507D01*
X77728600Y-87851525D02*
X63715905Y-87851525D01*
X63715905Y-73838830D01*
X77728600Y-73838830D01*
X77728600Y-87851525D01*
X77728600Y-68801522D02*
X63715905Y-68801522D01*
X63715905Y-54788796D01*
X77728600Y-54788796D01*
X77728600Y-68801522D01*
X77728600Y-106901513D02*
X63715905Y-106901513D01*
X63715905Y-92889550D01*
X77728600Y-92889550D01*
X77728600Y-106901513D01*
X115828598Y-83089013D02*
X101815911Y-83089013D01*
X101815911Y-69076302D01*
X115828598Y-69076302D01*
X115828598Y-83089013D01*
X115828598Y-102139031D02*
X101815911Y-102139031D01*
X101815911Y-88126336D01*
X115828598Y-88126336D01*
X115828598Y-102139031D01*
X134814812Y-107134515D02*
X142498955Y-107177041D01*
X142498955Y-121189019D01*
X128486626Y-121189019D01*
X128486618Y-118797540D01*
X120865914Y-118797540D01*
X120865914Y-104806375D01*
X134878601Y-104806375D01*
X134814812Y-107134515D01*
X167581101Y-116384545D02*
X160575287Y-128512689D01*
X148467949Y-121506524D01*
X155452954Y-109378015D01*
X167581101Y-116384545D01*
X115828598Y-64039025D02*
X101815911Y-64039025D01*
X101815911Y-50026299D01*
X115828598Y-50026299D01*
X115828598Y-64039025D01*
X134878601Y-80697534D02*
X120865914Y-80697534D01*
X120865914Y-66706338D01*
X134878601Y-66706338D01*
X134878601Y-80697534D01*
X153928955Y-83089013D02*
X139916619Y-83089013D01*
X139916619Y-69076302D01*
X153928955Y-69076302D01*
X153928955Y-83089013D01*
X192028956Y-94985040D02*
X178016270Y-94985040D01*
X178016270Y-80993890D01*
X192028956Y-80993890D01*
X192028956Y-94985040D01*
X172978955Y-85460046D02*
X158966271Y-85460046D01*
X158966271Y-71468865D01*
X172978955Y-71468865D01*
X172978955Y-85460046D01*
M02*
